<svg width="141" height="140" viewBox="0 0 141 140" fill="none" xmlns="http://www.w3.org/2000/svg">
<path d="M1 48.3264H5.82759V43.4988H3.38838C2.06715 43.4988 1 44.5659 1 45.938" fill="#303438"/>
<path d="M1 57.9819H5.82759V53.1543H3.38838C2.06715 53.1543 1 54.2214 1 55.5935" fill="#303438"/>
<path d="M1 67.5864H5.82759V62.7588H3.38838C2.06715 62.7588 1 63.8259 1 65.198" fill="#303438"/>
<path d="M5.82759 67.5862H1V72.4138H5.82759V67.5862Z" fill="#303438"/>
<path d="M1 82.0688H5.82759V77.2412H3.38838C2.06715 77.2412 1 78.3084 1 79.6804" fill="#303438"/>
<path d="M5.77677 82.0691H1V86.8967H3.38838C4.70962 86.8967 5.82759 85.8295 5.82759 84.4575" fill="#303438"/>
<path d="M1 96.5517H5.82759V91.7241H3.38838C2.06715 91.7241 1 92.7913 1 94.1633" fill="#303438"/>
<path d="M5.77677 96.5518H1V101.379H3.38838C4.70962 101.379 5.82759 100.312 5.82759 98.9401" fill="#303438"/>
<path d="M10.6049 43.4988H5.77734V48.3264H10.6049V43.4988Z" fill="#303438"/>
<path d="M10.6049 48.3267H5.77734V53.1542H10.6049V48.3267Z" fill="#303438"/>
<path d="M10.6049 53.1543H5.77734V57.9819H10.6049V53.1543Z" fill="#303438"/>
<path d="M10.6049 62.7588H5.77734V67.5864H10.6049V62.7588Z" fill="#303438"/>
<path d="M10.6049 67.5862H5.77734V72.4138H10.6049V67.5862Z" fill="#303438"/>
<path d="M10.6049 77.2412H5.77734V82.0688H10.6049V77.2412Z" fill="#303438"/>
<path d="M10.6049 91.7241H5.77734V96.5517H8.21654C9.53778 96.5517 10.6557 95.4846 10.6557 94.1125" fill="#303438"/>
<path d="M15.4311 38.6711H13.0427C11.7215 38.6711 10.6035 39.7383 10.6035 41.1103V43.5495H13.0427C14.364 43.5495 15.4311 42.4824 15.4311 41.1103" fill="#303438"/>
<path d="M15.4311 48.3267H10.6035V53.1542H15.4311V48.3267Z" fill="#303438"/>
<path d="M15.4311 53.1543H10.6035V57.9819H15.4311V53.1543Z" fill="#303438"/>
<path d="M15.4311 57.9817H10.6035V62.8093H15.4311V57.9817Z" fill="#303438"/>
<path d="M15.4311 67.5862H10.6035V72.4138H15.4311V67.5862Z" fill="#303438"/>
<path d="M15.4311 77.2412H10.6035V82.0688H15.4311V77.2412Z" fill="#303438"/>
<path d="M15.4311 82.0691H10.6035V86.8967H15.4311V82.0691Z" fill="#303438"/>
<path d="M15.4311 86.8967H10.6035V91.7243H15.4311V86.8967Z" fill="#303438"/>
<path d="M20.2592 48.3267H15.4316V53.1542H20.2592V48.3267Z" fill="#303438"/>
<path d="M20.2592 57.9817H15.4316V62.8093H20.2592V57.9817Z" fill="#303438"/>
<path d="M20.2592 67.5862H15.4316V72.4138H20.2592V67.5862Z" fill="#303438"/>
<path d="M20.2592 86.8967H15.4316V91.7243H17.8708C19.1921 91.7243 20.31 90.6572 20.31 89.2851" fill="#303438"/>
<path d="M20.2598 43.4987H25.0874V38.6711H22.6482C21.327 38.6711 20.209 39.7383 20.209 41.1103" fill="#303438"/>
<path d="M25.0874 48.3267H20.2598V53.1542H25.0874V48.3267Z" fill="#303438"/>
<path d="M25.0874 57.9817H20.2598V62.8093H25.0874V57.9817Z" fill="#303438"/>
<path d="M25.0874 62.7588H20.2598V67.5864H25.0874V62.7588Z" fill="#303438"/>
<path d="M25.0874 67.5862H20.2598V72.4138H25.0874V67.5862Z" fill="#303438"/>
<path d="M20.2598 82.0688H25.0874V77.2412H22.6482C21.327 77.2412 20.209 78.3084 20.209 79.6804" fill="#303438"/>
<path d="M25.0874 82.0691H20.2598V86.8967H25.0874V82.0691Z" fill="#303438"/>
<path d="M25.0874 96.5518H22.6482C21.327 96.5518 20.209 97.6189 20.209 98.991V101.43H22.6482C23.9694 101.43 25.0874 100.363 25.0874 98.991" fill="#303438"/>
<path d="M29.9155 38.6711H25.0879V43.4987H29.9155V38.6711Z" fill="#303438"/>
<path d="M29.9155 43.4988H25.0879V48.3264H29.9155V43.4988Z" fill="#303438"/>
<path d="M29.9155 48.3267H25.0879V53.1542H29.9155V48.3267Z" fill="#303438"/>
<path d="M29.9155 53.1543H25.0879V57.9819H27.5271C28.8483 57.9819 29.9663 56.9147 29.9663 55.5427" fill="#303438"/>
<path d="M29.9155 62.7588H25.0879V67.5864H29.9155V62.7588Z" fill="#303438"/>
<path d="M29.9155 67.5862H25.0879V72.4138H29.9155V67.5862Z" fill="#303438"/>
<path d="M29.9155 82.0691H25.0879V86.8967H27.5271C28.8483 86.8967 29.9663 85.8295 29.9663 84.4575" fill="#303438"/>
<path d="M29.9155 91.7241H27.4763C26.1551 91.7241 25.0371 92.7913 25.0371 94.1633V96.6025H27.4763C28.7975 96.6025 29.9155 95.5354 29.9155 94.1633" fill="#303438"/>
<path d="M34.7924 38.6711H29.9648V43.4987H32.404C33.7253 43.4987 34.8432 42.4316 34.8432 41.0595" fill="#303438"/>
<path d="M34.7924 48.3267H29.9648V53.1542H32.404C33.7253 53.1542 34.8432 52.0871 34.8432 50.715" fill="#303438"/>
<path d="M34.7925 57.9817H32.3533C31.032 57.9817 29.9141 59.0488 29.9141 60.4209V62.8093H32.3533C33.6745 62.8093 34.7925 61.7421 34.7925 60.4209" fill="#303438"/>
<path d="M34.7924 67.5862H29.9648V72.4138H32.404C33.7253 72.4138 34.8432 71.3466 34.8432 69.9746" fill="#303438"/>
<path d="M34.7925 77.2412H32.3533C31.032 77.2412 29.9141 78.3084 29.9141 79.6804V82.1196H32.3533C33.6745 82.1196 34.7925 81.0525 34.7925 79.6804" fill="#303438"/>
<path d="M34.7925 86.8967H32.3533C31.032 86.8967 29.9141 87.9639 29.9141 89.3359V91.7751H32.3533C33.6745 91.7751 34.7925 90.708 34.7925 89.3359" fill="#303438"/>
<path d="M29.9141 101.379H34.7417V96.5518H32.3025C30.9813 96.5518 29.8633 97.6189 29.8633 98.991" fill="#303438"/>
<path d="M39.6206 53.1543H37.1814C35.8602 53.1543 34.7422 54.2214 34.7422 55.5935V58.0327H37.1814C38.5026 58.0327 39.6206 56.9656 39.6206 55.5935" fill="#303438"/>
<path d="M39.6206 62.7588H37.1814C35.8602 62.7588 34.7422 63.8259 34.7422 65.198V67.6372H37.1814C38.5026 67.6372 39.6206 66.57 39.6206 65.198" fill="#303438"/>
<path d="M39.6206 96.5518H34.793V101.379H39.6206V96.5518Z" fill="#303438"/>
<path d="M39.6211 9.65498H44.4487V4.82739H42.0095C40.6883 4.82739 39.5703 5.89454 39.5703 7.26659" fill="#303438"/>
<path d="M39.6211 24.1379H44.4487V19.3103H42.0095C40.6883 19.3103 39.5703 20.3775 39.5703 21.7495" fill="#303438"/>
<path d="M44.4487 28.9653H42.0095C40.6883 28.9653 39.5703 30.0325 39.5703 31.4045V33.8437H42.0095C43.3307 33.8437 44.4487 32.7766 44.4487 31.4045" fill="#303438"/>
<path d="M39.6211 43.4987H44.4487V38.6711H42.0095C40.6883 38.6711 39.5703 39.7383 39.5703 41.1103" fill="#303438"/>
<path d="M39.6211 82.0688H44.4487V77.2412H42.0095C40.6883 77.2412 39.5703 78.3084 39.5703 79.6804" fill="#303438"/>
<path d="M39.6211 96.5517H44.4487V91.7241H42.0095C40.6883 91.7241 39.5703 92.7913 39.5703 94.1633" fill="#303438"/>
<path d="M44.4487 96.5518H39.6211V101.379H44.4487V96.5518Z" fill="#303438"/>
<path d="M44.4487 101.379H39.6211V106.207H42.0603C43.3815 106.207 44.4995 105.14 44.4995 103.768" fill="#303438"/>
<path d="M39.6211 115.862H44.4487V111.035H42.0095C40.6883 111.035 39.5703 112.102 39.5703 113.474" fill="#303438"/>
<path d="M44.4487 115.862H39.6211V120.69H44.4487V115.862Z" fill="#303438"/>
<path d="M44.4487 125.517H42.0095C40.6883 125.517 39.5703 126.584 39.5703 127.956V130.395H42.0095C43.3307 130.395 44.4487 129.328 44.4487 127.956" fill="#303438"/>
<path d="M49.2749 4.82739H44.4473V9.65498H49.2749V4.82739Z" fill="#303438"/>
<path d="M44.4493 19.3105H49.2768V14.4829H46.8376C45.5164 14.4829 44.3984 15.5501 44.3984 16.9221" fill="#303438"/>
<path d="M49.2749 19.3103H44.4473V24.1379H46.8865C48.2077 24.1379 49.3257 23.0707 49.3257 21.6987" fill="#303438"/>
<path d="M44.4493 38.6713H49.2768V33.8438H46.8376C45.5164 33.8438 44.3984 34.9109 44.3984 36.283" fill="#303438"/>
<path d="M49.2749 38.6711H44.4473V43.4987H49.2749V38.6711Z" fill="#303438"/>
<path d="M44.4493 62.7587H49.2768V57.9312H46.8376C45.5164 57.9312 44.3984 58.9983 44.3984 60.3704" fill="#303438"/>
<path d="M49.2749 62.7588H44.4473V67.5864H49.2749V62.7588Z" fill="#303438"/>
<path d="M49.2749 77.2412H44.4473V82.0688H46.8865C48.2077 82.0688 49.3257 81.0016 49.3257 79.6296" fill="#303438"/>
<path d="M44.4493 91.7243H49.2768V86.8967H46.8376C45.5164 86.8967 44.3984 87.9639 44.3984 89.3359" fill="#303438"/>
<path d="M49.2749 91.7241H44.4473V96.5517H49.2749V91.7241Z" fill="#303438"/>
<path d="M49.2749 111.035H44.4473V115.862H49.2749V111.035Z" fill="#303438"/>
<path d="M49.2749 115.862H44.4473V120.69H46.8865C48.2077 120.69 49.3257 119.622 49.3257 118.25" fill="#303438"/>
<path d="M44.4493 135.173H49.2768V130.345H46.8376C45.5164 130.345 44.3984 131.412 44.3984 132.784" fill="#303438"/>
<path d="M49.2749 135.172H44.4473V140H49.2749V135.172Z" fill="#303438"/>
<path d="M54.103 4.82739H49.2754V9.65498H54.103V4.82739Z" fill="#303438"/>
<path d="M54.103 9.65503H49.2754V14.4826H54.103V9.65503Z" fill="#303438"/>
<path d="M54.103 14.4829H49.2754V19.3105H54.103V14.4829Z" fill="#303438"/>
<path d="M54.103 28.9653H51.6638C50.3426 28.9653 49.2246 30.0325 49.2246 31.4045V33.8437H51.6638C52.985 33.8437 54.103 32.7766 54.103 31.4045" fill="#303438"/>
<path d="M54.103 38.6711H49.2754V43.4987H51.7146C53.0358 43.4987 54.1538 42.4316 54.1538 41.0595" fill="#303438"/>
<path d="M54.103 53.1543H51.6638C50.3426 53.1543 49.2246 54.2214 49.2246 55.5935V58.0327H51.6638C52.985 58.0327 54.103 56.9656 54.103 55.5935" fill="#303438"/>
<path d="M54.103 62.7588H49.2754V67.5864H51.7146C53.0358 67.5864 54.1538 66.5192 54.1538 65.1472" fill="#303438"/>
<path d="M54.103 72.4138H51.6638C50.3426 72.4138 49.2246 73.481 49.2246 74.853V77.2922H51.6638C52.985 77.2922 54.103 76.2251 54.103 74.853" fill="#303438"/>
<path d="M54.103 82.0691H51.6638C50.3426 82.0691 49.2246 83.1362 49.2246 84.5083V86.9475H51.6638C52.985 86.9475 54.103 85.8803 54.103 84.5083" fill="#303438"/>
<path d="M54.103 91.7241H49.2754V96.5517H54.103V91.7241Z" fill="#303438"/>
<path d="M49.2754 106.207H54.103V101.379H51.6638C50.3426 101.379 49.2246 102.446 49.2246 103.818" fill="#303438"/>
<path d="M49.2754 125.517H54.103V120.689H51.6638C50.3426 120.689 49.2246 121.757 49.2246 123.129" fill="#303438"/>
<path d="M54.103 125.517H49.2754V130.345H51.7146C53.0358 130.345 54.1538 129.278 54.1538 127.905" fill="#303438"/>
<path d="M54.103 135.172H49.2754V140H54.103V135.172Z" fill="#303438"/>
<path d="M54.1036 4.82731H58.9311V0.0505371H56.4919C55.1707 0.0505371 54.0527 1.11769 54.0527 2.43892" fill="#303438"/>
<path d="M58.9311 9.65503H54.1035V14.4826H58.9311V9.65503Z" fill="#303438"/>
<path d="M58.9311 14.4829H54.1035V19.3105H58.9311V14.4829Z" fill="#303438"/>
<path d="M58.9311 19.3103H54.1035V24.1379H58.9311V19.3103Z" fill="#303438"/>
<path d="M58.9311 24.1379H54.1035V28.9655H58.9311V24.1379Z" fill="#303438"/>
<path d="M54.1036 48.3264H58.9311V43.4988H56.4919C55.1707 43.4988 54.0527 44.5659 54.0527 45.938" fill="#303438"/>
<path d="M58.9311 48.3267H54.1035V53.1542H56.5427C57.864 53.1542 58.9819 52.0871 58.9819 50.715" fill="#303438"/>
<path d="M54.1036 91.7243H58.9311V86.8967H56.4919C55.1707 86.8967 54.0527 87.9639 54.0527 89.3359" fill="#303438"/>
<path d="M58.9311 91.7241H54.1035V96.5517H58.9311V91.7241Z" fill="#303438"/>
<path d="M58.9311 96.5518H54.1035V101.379H58.9311V96.5518Z" fill="#303438"/>
<path d="M58.9311 101.379H54.1035V106.207H56.5427C57.864 106.207 58.9819 105.14 58.9819 103.768" fill="#303438"/>
<path d="M54.1036 120.69H58.9311V115.862H56.4919C55.1707 115.862 54.0527 116.929 54.0527 118.301" fill="#303438"/>
<path d="M58.9311 120.689H54.1035V125.517H58.9311V120.689Z" fill="#303438"/>
<path d="M54.1036 135.173H58.9311V130.345H56.4919C55.1707 130.345 54.0527 131.412 54.0527 132.784" fill="#303438"/>
<path d="M58.9311 135.172H54.1035V140H58.9311V135.172Z" fill="#303438"/>
<path d="M63.7592 0.0505371H58.9316V4.87812H63.7592V0.0505371Z" fill="#303438"/>
<path d="M63.7084 4.82739H58.8809V9.65498H61.3201C62.6413 9.65498 63.7084 8.58783 63.7084 7.21578" fill="#303438"/>
<path d="M63.7084 14.4829H58.8809V19.3105H61.3201C62.6413 19.3105 63.7084 18.2433 63.7084 16.8713" fill="#303438"/>
<path d="M63.7592 24.1379H58.9316V28.9655H63.7592V24.1379Z" fill="#303438"/>
<path d="M63.7084 28.9653H58.8809V33.7929H61.3201C62.6413 33.7929 63.7084 32.7258 63.7084 31.3537" fill="#303438"/>
<path d="M63.7084 38.6711H61.3201C59.9988 38.6711 58.8809 39.7383 58.8809 41.1103V43.5495H61.3201C62.6413 43.5495 63.7084 42.4824 63.7084 41.1103" fill="#303438"/>
<path d="M63.7084 96.5518H58.8809V101.379H61.3201C62.6413 101.379 63.7084 100.312 63.7084 98.9401" fill="#303438"/>
<path d="M63.7084 111.035H61.3201C59.9988 111.035 58.8809 112.102 58.8809 113.474V115.913H61.3201C62.6413 115.913 63.7084 114.846 63.7084 113.474" fill="#303438"/>
<path d="M63.7084 120.689H58.8809V125.517H61.3201C62.6413 125.517 63.7084 124.45 63.7084 123.078" fill="#303438"/>
<path d="M63.7592 135.172H58.9316V140H63.7592V135.172Z" fill="#303438"/>
<path d="M68.5347 9.65503H66.0955C64.7742 9.65503 63.6562 10.7222 63.6562 12.0942V14.4826H66.0955C67.4167 14.4826 68.5347 13.4155 68.5347 12.0942" fill="#303438"/>
<path d="M68.5346 24.1379H63.707V28.9655H68.5346V24.1379Z" fill="#303438"/>
<path d="M63.7071 38.6713H68.5347V33.8438H66.0955C64.7742 33.8438 63.6562 34.9109 63.6562 36.283" fill="#303438"/>
<path d="M63.7071 111.035H68.5347V106.207H66.0955C64.7742 106.207 63.6562 107.274 63.6562 108.646" fill="#303438"/>
<path d="M63.7071 120.69H68.5347V115.862H66.0955C64.7742 115.862 63.6562 116.929 63.6562 118.301" fill="#303438"/>
<path d="M68.5347 125.517H66.0955C64.7742 125.517 63.6562 126.584 63.6562 127.956V130.395H66.0955C67.4167 130.395 68.5347 129.328 68.5347 127.956" fill="#303438"/>
<path d="M68.5346 135.172H63.707V140H68.5346V135.172Z" fill="#303438"/>
<path d="M68.5352 19.3105H73.3628V14.4829H70.9236C69.6023 14.4829 68.4844 15.5501 68.4844 16.9221" fill="#303438"/>
<path d="M73.3627 19.3103H68.5352V24.1379H73.3627V19.3103Z" fill="#303438"/>
<path d="M73.3627 24.1379H68.5352V28.9655H73.3627V24.1379Z" fill="#303438"/>
<path d="M73.3627 28.9653H68.5352V33.7929H73.3627V28.9653Z" fill="#303438"/>
<path d="M73.3627 33.8438H68.5352V38.6713H70.9744C72.2956 38.6713 73.4136 37.6042 73.4136 36.2321" fill="#303438"/>
<path d="M68.5352 101.379H73.3628V96.5518H70.9236C69.6023 96.5518 68.4844 97.6189 68.4844 98.991" fill="#303438"/>
<path d="M73.3627 106.207H68.5352V111.035H73.3627V106.207Z" fill="#303438"/>
<path d="M73.3627 115.862H68.5352V120.69H70.9744C72.2956 120.69 73.4136 119.622 73.4136 118.25" fill="#303438"/>
<path d="M68.5352 135.173H73.3628V130.345H70.9236C69.6023 130.345 68.4844 131.412 68.4844 132.784" fill="#303438"/>
<path d="M73.3627 135.172H68.5352V140H73.3627V135.172Z" fill="#303438"/>
<path d="M73.3633 4.82731H78.1909V0.0505371H75.7517C74.4305 0.0505371 73.3125 1.11769 73.3125 2.43892" fill="#303438"/>
<path d="M73.3633 14.4826H78.1909V9.65503H75.7517C74.4305 9.65503 73.3125 10.7222 73.3125 12.0942" fill="#303438"/>
<path d="M78.1909 14.4829H73.3633V19.3105H78.1909V14.4829Z" fill="#303438"/>
<path d="M78.1909 19.3103H73.3633V24.1379H75.8025C77.1237 24.1379 78.2417 23.0707 78.2417 21.6987" fill="#303438"/>
<path d="M73.3633 53.1542H78.1909V48.3267H75.7517C74.4305 48.3267 73.3125 49.3938 73.3125 50.7659" fill="#303438"/>
<path d="M73.3633 91.7243H78.1909V86.8967H75.7517C74.4305 86.8967 73.3125 87.9639 73.3125 89.3359" fill="#303438"/>
<path d="M78.1909 96.5518H73.3633V101.379H78.1909V96.5518Z" fill="#303438"/>
<path d="M78.1909 101.379H73.3633V106.207H78.1909V101.379Z" fill="#303438"/>
<path d="M78.1909 106.207H73.3633V111.035H78.1909V106.207Z" fill="#303438"/>
<path d="M78.1909 111.035H73.3633V115.862H75.8025C77.1237 115.862 78.2417 114.795 78.2417 113.423" fill="#303438"/>
<path d="M78.1909 120.689H75.7517C74.4305 120.689 73.3125 121.757 73.3125 123.129V125.568H75.7517C77.0729 125.568 78.1909 124.501 78.1909 123.129" fill="#303438"/>
<path d="M78.1909 135.172H73.3633V140H78.1909V135.172Z" fill="#303438"/>
<path d="M83.019 0.0505371H78.1914V4.87812H83.019V0.0505371Z" fill="#303438"/>
<path d="M83.019 4.82739H78.1914V9.65498H83.019V4.82739Z" fill="#303438"/>
<path d="M83.019 9.65503H78.1914V14.4826H83.019V9.65503Z" fill="#303438"/>
<path d="M78.1895 28.9655H83.0171V24.1379H80.5779C79.2566 24.1379 78.1387 25.2051 78.1387 26.5771" fill="#303438"/>
<path d="M83.019 28.9653H78.1914V33.7929H80.6306C81.9518 33.7929 83.0698 32.7258 83.0698 31.3537" fill="#303438"/>
<path d="M78.1895 43.4987H83.0171V38.6711H80.5779C79.2566 38.6711 78.1387 39.7383 78.1387 41.1103" fill="#303438"/>
<path d="M83.019 43.4988H78.1914V48.3264H83.019V43.4988Z" fill="#303438"/>
<path d="M83.019 48.3267H78.1914V53.1542H80.6306C81.9518 53.1542 83.0698 52.0871 83.0698 50.715" fill="#303438"/>
<path d="M83.019 86.8967H78.1914V91.7243H80.6306C81.9518 91.7243 83.0698 90.6572 83.0698 89.2851" fill="#303438"/>
<path d="M83.019 96.5518H78.1914V101.379H83.019V96.5518Z" fill="#303438"/>
<path d="M83.019 101.379H78.1914V106.207H80.6306C81.9518 106.207 83.0698 105.14 83.0698 103.768" fill="#303438"/>
<path d="M78.1895 135.173H83.0171V130.345H80.5779C79.2566 130.345 78.1387 131.412 78.1387 132.784" fill="#303438"/>
<path d="M83.019 135.172H78.1914V140H83.019V135.172Z" fill="#303438"/>
<path d="M87.8452 0.0505371H83.0176V4.87812H85.4568C86.778 4.87812 87.896 3.81097 87.896 2.43892" fill="#303438"/>
<path d="M87.8452 9.65503H83.0176V14.4826H87.8452V9.65503Z" fill="#303438"/>
<path d="M87.8452 14.4829H83.0176V19.3105H87.8452V14.4829Z" fill="#303438"/>
<path d="M87.8452 19.3103H83.0176V24.1379H87.8452V19.3103Z" fill="#303438"/>
<path d="M87.8452 24.1379H83.0176V28.9655H85.4568C86.778 28.9655 87.896 27.8984 87.896 26.5263" fill="#303438"/>
<path d="M87.8452 38.6711H83.0176V43.4987H87.8452V38.6711Z" fill="#303438"/>
<path d="M87.8452 43.4988H83.0176V48.3264H87.8452V43.4988Z" fill="#303438"/>
<path d="M83.0176 96.5517H87.8452V91.7241H85.406C84.0848 91.7241 82.9668 92.7913 82.9668 94.1633" fill="#303438"/>
<path d="M87.8452 96.5518H83.0176V101.379H85.4568C86.778 101.379 87.896 100.312 87.896 98.9401" fill="#303438"/>
<path d="M83.0176 115.862H87.8452V111.035H85.406C84.0848 111.035 82.9668 112.102 82.9668 113.474" fill="#303438"/>
<path d="M87.8452 115.862H83.0176V120.69H87.8452V115.862Z" fill="#303438"/>
<path d="M87.8452 125.517H85.406C84.0848 125.517 82.9668 126.584 82.9668 127.956V130.395H85.406C86.7272 130.395 87.8452 129.328 87.8452 127.956" fill="#303438"/>
<path d="M87.8452 135.172H83.0176V140H87.8452V135.172Z" fill="#303438"/>
<path d="M92.6733 9.65503H87.8457V14.4826H92.6733V9.65503Z" fill="#303438"/>
<path d="M92.6733 14.4829H87.8457V19.3105H92.6733V14.4829Z" fill="#303438"/>
<path d="M92.6733 19.3103H87.8457V24.1379H90.2849C91.6061 24.1379 92.7241 23.0707 92.7241 21.6987" fill="#303438"/>
<path d="M87.8457 33.8439H92.6733V29.0164H90.2341C88.9129 29.0164 87.7949 30.0835 87.7949 31.4556" fill="#303438"/>
<path d="M92.6733 33.8438H87.8457V38.6713H92.6733V33.8438Z" fill="#303438"/>
<path d="M92.6733 43.4988H87.8457V48.3264H92.6733V43.4988Z" fill="#303438"/>
<path d="M92.6733 48.3267H87.8457V53.1542H92.6733V48.3267Z" fill="#303438"/>
<path d="M92.6733 53.1543H87.8457V57.9819H92.6733V53.1543Z" fill="#303438"/>
<path d="M92.6733 57.9817H87.8457V62.8093H92.6733V57.9817Z" fill="#303438"/>
<path d="M92.6733 62.7588H87.8457V67.5864H90.2849C91.6061 67.5864 92.7241 66.5192 92.7241 65.1472" fill="#303438"/>
<path d="M92.6733 77.2412H90.2341C88.9129 77.2412 87.7949 78.3084 87.7949 79.6804V82.1196H90.2341C91.5554 82.1196 92.6733 81.0525 92.6733 79.6804" fill="#303438"/>
<path d="M92.6733 111.035H87.8457V115.862H92.6733V111.035Z" fill="#303438"/>
<path d="M92.6733 115.862H87.8457V120.69H92.6733V115.862Z" fill="#303438"/>
<path d="M92.6733 120.689H87.8457V125.517H92.6733V120.689Z" fill="#303438"/>
<path d="M92.6733 135.172H87.8457V140H92.6733V135.172Z" fill="#303438"/>
<path d="M97.5014 14.4829H92.6738V19.3105H95.113C96.4343 19.3105 97.5522 18.2433 97.5522 16.8713" fill="#303438"/>
<path d="M92.6739 28.9655H97.5015V24.1379H95.0622C93.741 24.1379 92.623 25.2051 92.623 26.5771" fill="#303438"/>
<path d="M97.5014 33.8438H92.6738V38.6713H97.5014V33.8438Z" fill="#303438"/>
<path d="M97.5014 38.6711H92.6738V43.4987H97.5014V38.6711Z" fill="#303438"/>
<path d="M97.5014 43.4988H92.6738V48.3264H97.5014V43.4988Z" fill="#303438"/>
<path d="M97.5014 48.3267H92.6738V53.1542H97.5014V48.3267Z" fill="#303438"/>
<path d="M97.5014 53.1543H92.6738V57.9819H97.5014V53.1543Z" fill="#303438"/>
<path d="M97.5014 57.9817H92.6738V62.8093H97.5014V57.9817Z" fill="#303438"/>
<path d="M97.5015 67.5862H95.0622C93.741 67.5862 92.623 68.6533 92.623 70.0254V72.4646H95.0622C96.3835 72.4646 97.5015 71.3974 97.5015 70.0254" fill="#303438"/>
<path d="M92.6739 86.8967H97.5015V82.0691H95.0622C93.741 82.0691 92.623 83.1362 92.623 84.5083" fill="#303438"/>
<path d="M92.6739 96.5517H97.5015V91.7241H95.0622C93.741 91.7241 92.623 92.7913 92.623 94.1633" fill="#303438"/>
<path d="M97.5014 96.5518H92.6738V101.379H97.5014V96.5518Z" fill="#303438"/>
<path d="M97.5014 120.689H92.6738V125.517H95.113C96.4343 125.517 97.5522 124.45 97.5522 123.078" fill="#303438"/>
<path d="M97.5014 135.172H92.6738V140H97.5014V135.172Z" fill="#303438"/>
<path d="M97.5 4.82731H102.328V0.0505371H99.8884C98.5672 0.0505371 97.4492 1.11769 97.4492 2.43892" fill="#303438"/>
<path d="M102.328 4.82739H97.5V9.65498H102.328V4.82739Z" fill="#303438"/>
<path d="M102.328 9.65503H97.5V14.4826H99.9392C101.26 14.4826 102.378 13.4155 102.378 12.0942" fill="#303438"/>
<path d="M97.5 24.1379H102.328V19.3103H99.8884C98.5672 19.3103 97.4492 20.3775 97.4492 21.7495" fill="#303438"/>
<path d="M102.328 24.1379H97.5V28.9655H102.328V24.1379Z" fill="#303438"/>
<path d="M102.328 28.9653H97.5V33.7929H99.9392C101.26 33.7929 102.378 32.7258 102.378 31.3537" fill="#303438"/>
<path d="M102.328 48.3267H97.5V53.1542H102.328V48.3267Z" fill="#303438"/>
<path d="M102.328 53.1543H97.5V57.9819H102.328V53.1543Z" fill="#303438"/>
<path d="M102.328 57.9817H97.5V62.8093H102.328V57.9817Z" fill="#303438"/>
<path d="M102.328 62.7588H97.5V67.5864H99.9392C101.26 67.5864 102.378 66.5192 102.378 65.1472" fill="#303438"/>
<path d="M97.5 77.2414H102.328V72.4138H99.8884C98.5672 72.4138 97.4492 73.481 97.4492 74.853" fill="#303438"/>
<path d="M102.328 82.0691H97.5V86.8967H102.328V82.0691Z" fill="#303438"/>
<path d="M102.328 86.8967H97.5V91.7243H102.328V86.8967Z" fill="#303438"/>
<path d="M102.328 91.7241H97.5V96.5517H102.328V91.7241Z" fill="#303438"/>
<path d="M102.328 96.5518H97.5V101.379H102.328V96.5518Z" fill="#303438"/>
<path d="M102.328 101.379H97.5V106.207H102.328V101.379Z" fill="#303438"/>
<path d="M102.328 106.207H97.5V111.035H102.328V106.207Z" fill="#303438"/>
<path d="M102.328 111.035H97.5V115.862H102.328V111.035Z" fill="#303438"/>
<path d="M102.328 115.862H97.5V120.69H102.328V115.862Z" fill="#303438"/>
<path d="M102.328 135.172H97.5V140H102.328V135.172Z" fill="#303438"/>
<path d="M107.156 38.6711H104.717C103.395 38.6711 102.277 39.7383 102.277 41.1103V43.5495H104.717C106.038 43.5495 107.156 42.4824 107.156 41.1103" fill="#303438"/>
<path d="M107.156 72.4138H102.328V77.2414H107.156V72.4138Z" fill="#303438"/>
<path d="M107.156 77.2412H102.328V82.0688H107.156V77.2412Z" fill="#303438"/>
<path d="M107.156 82.0691H102.328V86.8967H107.156V82.0691Z" fill="#303438"/>
<path d="M107.156 86.8967H102.328V91.7243H107.156V86.8967Z" fill="#303438"/>
<path d="M107.156 91.7241H102.328V96.5517H107.156V91.7241Z" fill="#303438"/>
<path d="M107.156 96.5518H102.328V101.379H107.156V96.5518Z" fill="#303438"/>
<path d="M107.156 115.862H102.328V120.69H107.156V115.862Z" fill="#303438"/>
<path d="M107.156 125.517H104.717C103.395 125.517 102.277 126.584 102.277 127.956V130.395H104.717C106.038 130.395 107.156 129.328 107.156 127.956" fill="#303438"/>
<path d="M107.156 135.172H102.328V140H107.156V135.172Z" fill="#303438"/>
<path d="M107.156 57.9819H111.984V53.1543H109.545C108.223 53.1543 107.105 54.2214 107.105 55.5935" fill="#303438"/>
<path d="M111.984 62.7588H109.545C108.223 62.7588 107.105 63.8259 107.105 65.198V67.6372H109.545C110.866 67.6372 111.984 66.57 111.984 65.198" fill="#303438"/>
<path d="M111.984 72.4138H107.156V77.2414H109.595C110.917 77.2414 112.035 76.1743 112.035 74.8022" fill="#303438"/>
<path d="M111.984 86.8967H107.156V91.7243H111.984V86.8967Z" fill="#303438"/>
<path d="M111.984 91.7241H107.156V96.5517H111.984V91.7241Z" fill="#303438"/>
<path d="M111.984 96.5518H107.156V101.379H111.984V96.5518Z" fill="#303438"/>
<path d="M111.984 106.207H109.545C108.223 106.207 107.105 107.274 107.105 108.646V111.085H109.545C110.866 111.085 111.984 110.018 111.984 108.646" fill="#303438"/>
<path d="M111.984 115.862H107.156V120.69H111.984V115.862Z" fill="#303438"/>
<path d="M111.984 135.172H107.156V140H109.595C110.917 140 112.035 138.933 112.035 137.561" fill="#303438"/>
<path d="M111.984 48.3264H116.812V43.4988H114.373C113.052 43.4988 111.934 44.5659 111.934 45.938" fill="#303438"/>
<path d="M116.812 53.1543H111.984V57.9819H116.812V53.1543Z" fill="#303438"/>
<path d="M116.812 57.9817H111.984V62.8093H114.424C115.745 62.8093 116.863 61.7421 116.863 60.4209" fill="#303438"/>
<path d="M111.984 72.4138H116.812V67.5862H114.373C113.052 67.5862 111.934 68.6533 111.934 70.0254" fill="#303438"/>
<path d="M111.984 82.0688H116.812V77.2412H114.373C113.052 77.2412 111.934 78.3084 111.934 79.6804" fill="#303438"/>
<path d="M116.812 91.7241H111.984V96.5517H116.812V91.7241Z" fill="#303438"/>
<path d="M116.812 96.5518H111.984V101.379H116.812V96.5518Z" fill="#303438"/>
<path d="M116.812 115.862H111.984V120.69H116.812V115.862Z" fill="#303438"/>
<path d="M116.812 120.689H111.984V125.517H114.424C115.745 125.517 116.863 124.45 116.863 123.078" fill="#303438"/>
<path d="M116.811 43.4987H121.638V38.6711H119.199C117.878 38.6711 116.76 39.7383 116.76 41.1103" fill="#303438"/>
<path d="M121.638 43.4988H116.811V48.3264H119.25C120.571 48.3264 121.689 47.2592 121.689 45.8872" fill="#303438"/>
<path d="M121.638 67.5862H116.811V72.4138H121.638V67.5862Z" fill="#303438"/>
<path d="M121.638 77.2412H116.811V82.0688H119.25C120.571 82.0688 121.689 81.0016 121.689 79.6296" fill="#303438"/>
<path d="M121.638 91.7241H116.811V96.5517H121.638V91.7241Z" fill="#303438"/>
<path d="M121.638 96.5518H116.811V101.379H121.638V96.5518Z" fill="#303438"/>
<path d="M121.638 101.379H116.811V106.207H121.638V101.379Z" fill="#303438"/>
<path d="M121.638 106.207H116.811V111.035H121.638V106.207Z" fill="#303438"/>
<path d="M121.638 111.035H116.811V115.862H121.638V111.035Z" fill="#303438"/>
<path d="M121.638 115.862H116.811V120.69H119.25C120.571 120.69 121.689 119.622 121.689 118.25" fill="#303438"/>
<path d="M116.811 135.173H121.638V130.345H119.199C117.878 130.345 116.76 131.412 116.76 132.784" fill="#303438"/>
<path d="M121.638 135.172H116.811V140H119.25C120.571 140 121.689 138.933 121.689 137.561" fill="#303438"/>
<path d="M121.639 53.1542H126.466V48.3267H124.027C122.706 48.3267 121.588 49.3938 121.588 50.7659" fill="#303438"/>
<path d="M121.639 62.7587H126.466V57.9312H124.027C122.706 57.9312 121.588 58.9983 121.588 60.3704" fill="#303438"/>
<path d="M126.466 62.7588H121.639V67.5864H126.466V62.7588Z" fill="#303438"/>
<path d="M126.466 67.5862H121.639V72.4138H124.078C125.399 72.4138 126.517 71.3466 126.517 69.9746" fill="#303438"/>
<path d="M121.639 86.8967H126.466V82.0691H124.027C122.706 82.0691 121.588 83.1362 121.588 84.5083" fill="#303438"/>
<path d="M126.466 86.8967H121.639V91.7243H126.466V86.8967Z" fill="#303438"/>
<path d="M126.466 111.035H121.639V115.862H124.078C125.399 115.862 126.517 114.795 126.517 113.423" fill="#303438"/>
<path d="M121.639 125.517H126.466V120.689H124.027C122.706 120.689 121.588 121.757 121.588 123.129" fill="#303438"/>
<path d="M126.466 125.517H121.639V130.345H126.466V125.517Z" fill="#303438"/>
<path d="M126.466 130.345H121.639V135.173H126.466V130.345Z" fill="#303438"/>
<path d="M126.467 48.3264H131.294V43.4988H128.855C127.534 43.4988 126.416 44.5659 126.416 45.938" fill="#303438"/>
<path d="M131.294 48.3267H126.467V53.1542H131.294V48.3267Z" fill="#303438"/>
<path d="M131.294 53.1543H126.467V57.9819H131.294V53.1543Z" fill="#303438"/>
<path d="M126.467 77.2414H131.294V72.4138H128.855C127.534 72.4138 126.416 73.481 126.416 74.853" fill="#303438"/>
<path d="M131.294 86.8967H126.467V91.7243H131.294V86.8967Z" fill="#303438"/>
<path d="M131.294 91.7241H126.467V96.5517H131.294V91.7241Z" fill="#303438"/>
<path d="M131.294 96.5518H126.467V101.379H131.294V96.5518Z" fill="#303438"/>
<path d="M131.294 101.379H126.467V106.207H128.906C130.227 106.207 131.345 105.14 131.345 103.768" fill="#303438"/>
<path d="M131.294 130.345H126.467V135.173H131.294V130.345Z" fill="#303438"/>
<path d="M131.294 135.172H126.467V140H131.294V135.172Z" fill="#303438"/>
<path d="M136.123 38.6711H133.683C132.362 38.6711 131.244 39.7383 131.244 41.1103V43.5495H133.683C135.005 43.5495 136.123 42.4824 136.123 41.1103" fill="#303438"/>
<path d="M136.123 48.3267H131.295V53.1542H136.123V48.3267Z" fill="#303438"/>
<path d="M136.123 53.1543H131.295V57.9819H136.123V53.1543Z" fill="#303438"/>
<path d="M136.123 57.9817H131.295V62.8093H136.123V57.9817Z" fill="#303438"/>
<path d="M131.295 72.4138H136.123V67.5862H133.683C132.362 67.5862 131.244 68.6533 131.244 70.0254" fill="#303438"/>
<path d="M136.123 72.4138H131.295V77.2414H136.123V72.4138Z" fill="#303438"/>
<path d="M136.123 77.2412H131.295V82.0688H136.123V77.2412Z" fill="#303438"/>
<path d="M136.123 82.0691H131.295V86.8967H136.123V82.0691Z" fill="#303438"/>
<path d="M136.123 91.7241H131.295V96.5517H136.123V91.7241Z" fill="#303438"/>
<path d="M136.123 96.5518H131.295V101.379H136.123V96.5518Z" fill="#303438"/>
<path d="M131.295 111.035H136.123V106.207H133.683C132.362 106.207 131.244 107.274 131.244 108.646" fill="#303438"/>
<path d="M136.123 111.035H131.295V115.862H133.734C135.055 115.862 136.173 114.795 136.173 113.423" fill="#303438"/>
<path d="M136.123 120.689H133.683C132.362 120.689 131.244 121.757 131.244 123.129V125.568H133.683C135.005 125.568 136.123 124.501 136.123 123.129" fill="#303438"/>
<path d="M136.123 130.345H131.295V135.173H136.123V130.345Z" fill="#303438"/>
<path d="M136.123 135.172H131.295V140H133.734C135.055 140 136.173 138.933 136.173 137.561" fill="#303438"/>
<path d="M136.121 48.3264H140.949V43.4988H138.51C137.188 43.4988 136.07 44.5659 136.07 45.938" fill="#303438"/>
<path d="M140.949 48.3267H136.121V53.1542H138.56C139.882 53.1542 140.999 52.0871 140.999 50.715" fill="#303438"/>
<path d="M140.949 57.9817H136.121V62.8093H140.949V57.9817Z" fill="#303438"/>
<path d="M140.949 62.7588H136.121V67.5864H138.56C139.882 67.5864 140.999 66.5192 140.999 65.1472" fill="#303438"/>
<path d="M140.949 82.0691H136.121V86.8967H138.56C139.882 86.8967 140.999 85.8295 140.999 84.4575" fill="#303438"/>
<path d="M140.949 91.7241H136.121V96.5517H140.949V91.7241Z" fill="#303438"/>
<path d="M140.949 96.5518H136.121V101.379H138.56C139.882 101.379 140.999 100.312 140.999 98.9401" fill="#303438"/>
<path d="M140.949 115.862H138.51C137.188 115.862 136.07 116.929 136.07 118.301V120.74H138.51C139.831 120.74 140.949 119.673 140.949 118.301" fill="#303438"/>
<path d="M136.121 130.345H140.949V125.517H138.51C137.188 125.517 136.07 126.584 136.07 127.956" fill="#303438"/>
<path d="M140.949 130.345H136.121V135.173H138.56C139.882 135.173 140.999 134.105 140.999 132.733" fill="#303438"/>
<path d="M1 12.0944V21.7495C1 28.4065 6.38657 33.8439 13.0944 33.8439H22.7495C29.4065 33.8439 34.8439 28.4574 34.8439 21.7495V12.0944C34.8439 5.43739 29.4573 0 22.7495 0H13.0944C6.38657 0.0508167 1 5.43739 1 12.0944ZM13.0436 4.82759H22.6987C26.7132 4.82759 29.9147 8.07985 29.9147 12.0436V21.6987C29.9147 25.7133 26.6624 28.9147 22.6987 28.9147H13.0436C9.02904 28.9147 5.82759 25.6624 5.82759 21.6987V12.0436C5.77677 8.07985 9.02904 4.82759 13.0436 4.82759Z" fill="#303438"/>
<path d="M10.6035 14.4826H15.4311V9.65503H13.0427C11.7215 9.65503 10.6035 10.7222 10.6035 12.0942" fill="#303438"/>
<path d="M15.4311 14.4832H10.6035V19.3107H15.4311V14.4832Z" fill="#303438"/>
<path d="M15.4311 19.3105H10.6035V24.1381H15.4311V19.3105Z" fill="#303438"/>
<path d="M20.2592 9.65527H15.4316V14.4829H20.2592V9.65527Z" fill="#303438"/>
<path d="M20.2592 14.4832H15.4316V19.3107H20.2592V14.4832Z" fill="#303438"/>
<path d="M20.2592 19.3105H15.4316V24.1381H20.2592V19.3105Z" fill="#303438"/>
<path d="M25.0874 9.65527H20.2598V14.4829H25.0874V9.65527Z" fill="#303438"/>
<path d="M25.0874 14.4832H20.2598V19.3107H25.0874V14.4832Z" fill="#303438"/>
<path d="M25.0874 19.3105H20.2598V24.1381H22.699C24.0202 24.1381 25.1382 23.071 25.1382 21.6989" fill="#303438"/>
<path d="M25.0863 9.65503H10.6035V24.1378H25.0863V9.65503Z" fill="#303438"/>
<path d="M128.906 0.0507812H119.251C112.594 0.0507812 107.156 5.43735 107.156 12.1452V21.8003C107.156 28.4573 112.543 33.8947 119.251 33.8947H128.906C135.563 33.8947 141 28.5081 141 21.8003V12.1452C140.949 5.43735 135.563 0.0507812 128.906 0.0507812ZM136.122 12.0943V21.7495C136.122 25.764 132.869 28.9655 128.906 28.9655H119.251C115.236 28.9655 112.035 25.7132 112.035 21.7495V12.0943C112.035 8.07982 115.287 4.87837 119.251 4.87837H128.906C132.92 4.82755 136.122 8.07982 136.122 12.0943Z" fill="#303438"/>
<path d="M116.811 14.4826H121.638V9.65503H119.199C117.878 9.65503 116.76 10.7222 116.76 12.0942" fill="#303438"/>
<path d="M121.638 14.4832H116.811V19.3107H121.638V14.4832Z" fill="#303438"/>
<path d="M121.638 19.3105H116.811V24.1381H121.638V19.3105Z" fill="#303438"/>
<path d="M126.466 9.65527H121.639V14.4829H126.466V9.65527Z" fill="#303438"/>
<path d="M126.466 14.4832H121.639V19.3107H126.466V14.4832Z" fill="#303438"/>
<path d="M126.466 19.3105H121.639V24.1381H126.466V19.3105Z" fill="#303438"/>
<path d="M131.292 9.65527H126.465V14.4829H131.292V9.65527Z" fill="#303438"/>
<path d="M131.292 14.4832H126.465V19.3107H131.292V14.4832Z" fill="#303438"/>
<path d="M131.292 19.3105H126.465V24.1381H128.904C130.225 24.1381 131.343 23.071 131.343 21.6989" fill="#303438"/>
<path d="M131.293 9.65527H116.811V24.138H131.293V9.65527Z" fill="#303438"/>
<path d="M13.0436 140H22.6988C29.3558 140 34.7931 134.614 34.7931 127.906V118.251C34.7931 111.594 29.4066 106.156 22.6988 106.156H13.0436C6.38661 106.156 0.949219 111.543 0.949219 118.251V127.906C1.00004 134.614 6.38661 140 13.0436 140ZM5.77681 127.957V118.301C5.77681 114.287 9.02907 111.085 12.9928 111.085H22.648C26.6625 111.085 29.8639 114.338 29.8639 118.301V127.957C29.8639 131.971 26.6117 135.173 22.648 135.173H12.9928C9.02907 135.173 5.77681 131.971 5.77681 127.957Z" fill="#303438"/>
<path d="M10.6035 120.69H15.4311V115.862H13.0427C11.7215 115.862 10.6035 116.929 10.6035 118.301" fill="#303438"/>
<path d="M15.4311 120.69H10.6035V125.517H15.4311V120.69Z" fill="#303438"/>
<path d="M15.4311 125.517H10.6035V130.345H15.4311V125.517Z" fill="#303438"/>
<path d="M20.2592 115.862H15.4316V120.69H20.2592V115.862Z" fill="#303438"/>
<path d="M20.2592 120.69H15.4316V125.517H20.2592V120.69Z" fill="#303438"/>
<path d="M20.2592 125.517H15.4316V130.345H20.2592V125.517Z" fill="#303438"/>
<path d="M25.0874 115.862H20.2598V120.69H25.0874V115.862Z" fill="#303438"/>
<path d="M25.0874 120.69H20.2598V125.517H25.0874V120.69Z" fill="#303438"/>
<path d="M25.0874 125.517H20.2598V130.345H22.699C24.0202 130.345 25.1382 129.278 25.1382 127.906" fill="#303438"/>
<path d="M25.0863 115.862H10.6035V130.345H25.0863V115.862Z" fill="#303438"/>
<path d="M82.0012 59.7036C81.6929 59.4039 81.3846 59.4039 80.9222 59.5537L59.4974 67.3454C59.035 67.4952 58.8809 67.9447 58.8809 68.2444C58.8809 68.6939 59.1891 68.9936 59.4974 69.1434L65.6628 71.391C65.6628 71.391 65.8169 71.391 65.8169 71.5409L67.3583 76.9351C67.5124 77.3846 67.8207 77.5344 68.129 77.6843C68.5914 77.6843 68.8997 77.5344 69.2079 77.2347L71.0576 74.8373L71.2117 74.6875H71.3658L77.0688 79.4823C77.223 79.6322 77.5312 79.782 77.6854 79.782C77.8395 79.782 77.9936 79.782 77.9936 79.782C78.3019 79.6322 78.6102 79.3325 78.6102 79.0328L82.1553 60.7525C82.3094 60.3029 82.3094 59.8534 82.0012 59.7036ZM68.129 76.6354L66.5876 71.2412C66.5876 71.2412 66.5876 71.2412 66.5876 71.0913C66.4335 70.7917 66.5876 70.3422 66.8959 70.1923L81.0763 60.4528L69.3621 71.9904L68.129 76.6354C68.2831 76.7852 68.129 76.7852 68.129 76.6354Z" fill="#4DA2D6"/>
</svg>
