<svg width="24" height="21" viewBox="0 0 24 21" fill="none" xmlns="http://www.w3.org/2000/svg">
<path d="M23.4324 0.718711C23.1242 0.419033 22.8159 0.419024 22.3535 0.568863L0.928676 8.3605C0.46627 8.51033 0.312134 8.95985 0.312134 9.25953C0.312134 9.70904 0.620405 10.0087 0.928676 10.1586L7.09409 12.4061C7.09409 12.4061 7.24822 12.4061 7.24822 12.556L8.78958 17.9502C8.94371 18.3997 9.25198 18.5495 9.56025 18.6994C10.0227 18.6994 10.3309 18.5495 10.6392 18.2499L12.4888 15.8524L12.643 15.7026H12.7971L18.5001 20.4974C18.6542 20.6473 18.9625 20.7971 19.1166 20.7971C19.2708 20.7971 19.4249 20.7971 19.4249 20.7971C19.7332 20.6473 20.0415 20.3476 20.0415 20.0479L23.5866 1.76758C23.7407 1.31806 23.7407 0.86855 23.4324 0.718711ZM9.56025 17.6505L8.0189 12.2563C8.0189 12.2563 8.0189 12.2563 8.0189 12.1065C7.86477 11.8068 8.0189 11.3573 8.32717 11.2074L22.5076 1.46791L10.7933 13.0055L9.56025 17.6505C9.71439 17.8003 9.56025 17.8003 9.56025 17.6505Z" fill="white"/>
</svg>
