<svg width="16" height="16" viewBox="0 0 16 16" fill="none" xmlns="http://www.w3.org/2000/svg">
<path d="M13.6643 2.32525C12.2983 0.964296 10.482 0.144033 8.55359 0.0172498C6.6252 -0.109534 4.71626 0.465807 3.18234 1.6361C1.64843 2.8064 0.594144 4.49185 0.215863 6.37851C-0.162418 8.26516 0.161101 10.2244 1.12616 11.8912L-0.000976562 16L4.22172 14.8963C5.38929 15.5313 6.69816 15.8649 8.02865 15.8663C9.605 15.8672 11.1462 15.4026 12.4572 14.5312C13.7681 13.6598 14.79 12.4208 15.3933 10.9711C15.9967 9.52137 16.1545 7.92604 15.8467 6.387C15.5389 4.84796 14.7794 3.43441 13.6643 2.32525ZM8.02865 14.5233C6.84146 14.5233 5.67615 14.2053 4.65482 13.6028L4.41337 13.4595L1.90682 14.1138L2.57595 11.6832L2.41787 11.4331C1.63746 10.1952 1.29244 8.73415 1.43705 7.27973C1.58165 5.82531 2.20768 4.45996 3.21672 3.39832C4.22576 2.33668 5.5606 1.63896 7.01139 1.41483C8.46218 1.1907 9.94666 1.45287 11.2315 2.16014C12.5163 2.8674 13.5285 3.97965 14.1091 5.32204C14.6897 6.66442 14.8058 8.16082 14.439 9.576C14.0722 10.9912 13.2433 12.2449 12.0828 13.14C10.9222 14.0352 9.49572 14.521 8.02756 14.5212L8.02865 14.5233Z" fill="white"/>
<path fill-rule="evenodd" clip-rule="evenodd" d="M6.03753 4.61365C5.88811 4.28383 5.73112 4.27736 5.59036 4.27197H5.20815C5.10732 4.27461 5.00813 4.298 4.91682 4.34067C4.82552 4.38333 4.74407 4.44435 4.67761 4.51988C4.45345 4.73137 4.27575 4.98681 4.15574 5.27009C4.03572 5.55338 3.976 5.85835 3.98032 6.16576C3.98032 7.13583 4.69385 8.08219 4.79346 8.21369C4.89307 8.34519 6.17071 10.4136 8.19436 11.208C9.87477 11.8676 10.2169 11.7361 10.5829 11.7038C10.9489 11.6715 11.7598 11.2241 11.9255 10.7617C12.0911 10.2993 12.0922 9.89946 12.0424 9.81969C11.9926 9.73993 11.8594 9.68712 11.6602 9.58796C11.461 9.48879 10.4822 9.01023 10.3003 8.94124C10.1184 8.87226 9.98521 8.84208 9.85204 9.0404C9.71886 9.23873 9.33882 9.68712 9.22188 9.81754C9.10494 9.94796 8.99017 9.96628 8.78878 9.86712C8.20201 9.63453 7.66047 9.30189 7.18849 8.88412C6.75411 8.48427 6.38158 8.02261 6.08301 7.51416C5.96607 7.31584 6.07002 7.20805 6.17071 7.10997C6.27141 7.01188 6.36885 6.87823 6.46955 6.7629C6.55121 6.66264 6.61794 6.55119 6.66769 6.432C6.69413 6.37735 6.7065 6.31701 6.70366 6.25642C6.70082 6.19582 6.68288 6.13689 6.65145 6.08493C6.60164 5.98576 6.21835 5.00707 6.03753 4.61365Z" fill="white"/>
</svg>
