<svg width="23" height="24" viewBox="0 0 23 24" fill="none" xmlns="http://www.w3.org/2000/svg">
<path d="M1.07501 3.77914C1.53746 3.08545 3.5029 0.888783 4.89028 1.0044C5.35273 1.12001 5.69957 1.23563 6.04642 1.58247C7.20256 2.73861 8.12747 4.01037 8.93677 5.39774C9.168 6.78511 7.5494 7.47879 8.12747 8.86616C9.28362 11.8721 11.5959 14.1844 14.6019 15.3406C15.9892 15.803 16.7985 14.1844 18.0703 14.5313C19.4577 15.3406 20.7294 16.2655 21.8856 17.4216C22.2324 17.7685 22.4636 18.1153 22.4636 18.5778C22.4636 20.0807 20.1514 22.1618 19.6889 22.393C18.6484 23.2023 17.261 23.2023 15.5268 22.393C10.7866 20.4276 3.15606 12.9127 1.19062 7.94125C0.381321 6.20704 0.381321 4.81967 1.07501 3.77914Z" stroke="#5CCC81" stroke-miterlimit="10" stroke-linecap="round" stroke-linejoin="round"/>
</svg>
