<svg width="15" height="18" viewBox="0 0 15 18" fill="none" xmlns="http://www.w3.org/2000/svg">
<path d="M7.80404 9.01043C10.0161 9.01043 11.8093 7.21723 11.8093 5.00522C11.8093 2.7932 10.0161 1 7.80404 1C5.59202 1 3.79883 2.7932 3.79883 5.00522C3.79883 7.21723 5.59202 9.01043 7.80404 9.01043Z" stroke="white" stroke-miterlimit="10" stroke-linecap="round" stroke-linejoin="round"/>
<path d="M1.46289 14.5176C1.46289 14.2672 1.54633 13.9335 1.62977 13.6831C2.21387 12.9322 3.04829 12.4315 3.96615 12.3481C4.63369 12.1812 5.30122 12.0977 5.88532 12.0977C7.13695 12.0143 8.30513 12.0143 9.55676 12.0977C10.2243 12.1812 10.8918 12.2646 11.4759 12.3481C12.3938 12.5149 13.4785 12.9322 13.8123 13.6831C14.0626 14.1838 14.0626 14.7679 13.8123 15.2685C13.3951 16.103 12.3938 16.4367 11.4759 16.6036C10.9753 16.8539 10.3077 16.9374 9.6402 16.9374C8.6389 17.0208 7.6376 17.0208 6.63629 16.9374C6.38597 16.9374 6.21908 16.9374 5.96876 16.8539C5.30122 16.7705 4.63369 16.687 4.04959 16.6036C3.13173 16.4367 2.04698 16.103 1.71322 15.2685C1.54633 15.1016 1.46289 14.7679 1.46289 14.5176Z" stroke="white" stroke-miterlimit="10" stroke-linecap="round" stroke-linejoin="round"/>
</svg>
