<svg width="45" height="44" viewBox="0 0 45 44" fill="none" xmlns="http://www.w3.org/2000/svg">
<rect x="0.462891" width="44" height="44" rx="16" fill="url(#paint0_linear_903_2073)"/>
<path d="M29.5445 14.9066C27.837 13.2054 25.5666 12.18 23.1561 12.0216C20.7456 11.8631 18.3594 12.5823 16.442 14.0451C14.5247 15.508 13.2068 17.6148 12.7339 19.9731C12.2611 22.3315 12.6655 24.7805 13.8718 26.864L12.4629 32L17.7413 30.6203C19.2007 31.4142 20.8368 31.8311 22.4999 31.8329C24.4704 31.8341 26.3968 31.2532 28.0356 30.164C29.6743 29.0748 30.9516 27.5261 31.7058 25.7139C32.46 23.9017 32.6572 21.9075 32.2725 19.9837C31.8878 18.06 30.9384 16.293 29.5445 14.9066ZM22.4999 30.1542C21.0159 30.1541 19.5593 29.7567 18.2826 29.0036L17.9808 28.8244L14.8476 29.6422L15.6841 26.604L15.4865 26.2914C14.5109 24.744 14.0797 22.9177 14.2604 21.0997C14.4412 19.2816 15.2237 17.5749 16.485 16.2479C17.7463 14.9209 19.4149 14.0487 21.2283 13.7685C23.0418 13.4884 24.8974 13.8161 26.5034 14.7002C28.1094 15.5843 29.3748 16.9746 30.1005 18.6525C30.8263 20.3305 30.9713 22.201 30.5128 23.97C30.0543 25.739 29.0183 27.3061 27.5676 28.4251C26.1169 29.544 24.3338 30.1513 22.4986 30.1515L22.4999 30.1542Z" fill="white"/>
<path fill-rule="evenodd" clip-rule="evenodd" d="M20.0112 17.7669C19.8245 17.3547 19.6282 17.3466 19.4523 17.3398H18.9745C18.8485 17.3431 18.7245 17.3724 18.6104 17.4257C18.4962 17.479 18.3944 17.5553 18.3113 17.6497C18.0311 17.9141 17.809 18.2334 17.659 18.5875C17.509 18.9416 17.4343 19.3228 17.4397 19.7071C17.4397 20.9197 18.3316 22.1026 18.4562 22.267C18.5807 22.4314 20.1777 25.0169 22.7073 26.0098C24.8078 26.8344 25.2355 26.67 25.6929 26.6296C26.1504 26.5892 27.1641 26.0301 27.3712 25.4521C27.5783 24.8741 27.5796 24.3742 27.5174 24.2745C27.4551 24.1748 27.2886 24.1088 27.0396 23.9848C26.7906 23.8609 25.5671 23.2627 25.3397 23.1764C25.1123 23.0902 24.9458 23.0525 24.7794 23.3004C24.6129 23.5483 24.1378 24.1088 23.9917 24.2718C23.8455 24.4348 23.702 24.4577 23.4503 24.3338C22.7168 24.043 22.0399 23.6272 21.4499 23.105C20.907 22.6052 20.4413 22.0281 20.0681 21.3926C19.9219 21.1447 20.0518 21.0099 20.1777 20.8873C20.3036 20.7647 20.4254 20.5977 20.5513 20.4535C20.6533 20.3282 20.7368 20.1889 20.7989 20.0399C20.832 19.9716 20.8474 19.8961 20.8439 19.8204C20.8404 19.7447 20.8179 19.671 20.7786 19.606C20.7164 19.4821 20.2373 18.2587 20.0112 17.7669Z" fill="white"/>
<defs>
<linearGradient id="paint0_linear_903_2073" x1="44.4629" y1="44" x2="-3.4161" y2="39.2707" gradientUnits="userSpaceOnUse">
<stop stop-color="#49B86E"/>
<stop offset="1" stop-color="#5CCC81"/>
</linearGradient>
</defs>
</svg>
