<svg width="22" height="21" viewBox="0 0 22 21" fill="none" xmlns="http://www.w3.org/2000/svg">
<path d="M9.32786 20.9422C5.23888 20.9422 3.12532 20.873 1.87023 19.5255C0.576166 18.1346 0.576172 15.7063 0.576172 10.8655C0.576172 1.16798 0.959213 0.791321 10.8211 0.791321C20.6829 0.791321 21.0685 1.16798 21.0685 10.8655C21.0685 20.563 20.6855 20.9405 10.8211 20.9405H9.32786V20.9422ZM10.8211 2.41216C6.48633 2.41216 4.0965 2.41214 3.16091 3.32881C2.22531 4.24547 2.22871 6.59881 2.22871 10.8613C2.22871 15.143 2.2287 17.5013 3.08972 18.4271C3.92277 19.3213 6.10074 19.3138 10.027 19.3171H10.8253C15.1626 19.3171 17.5516 19.3171 18.488 18.4005C19.4245 17.4838 19.4202 15.1305 19.4202 10.8663C19.4202 6.60215 19.4202 4.25382 18.488 3.33382C17.5558 2.41382 15.1584 2.41297 10.8211 2.41297V2.41216Z" fill="#667280"/>
<path d="M10.8219 15.7555C9.83877 15.7553 8.87775 15.4685 8.06038 14.9313C7.243 14.3941 6.60597 13.6307 6.22981 12.7375C5.85366 11.8443 5.75528 10.8615 5.94713 9.9133C6.13897 8.96513 6.61241 8.09417 7.30759 7.41058C8.00277 6.72698 8.88848 6.26143 9.85271 6.07279C10.8169 5.88414 11.8164 5.98089 12.7248 6.35078C13.6331 6.72066 14.4095 7.34708 14.9558 8.15083C15.5021 8.95459 15.7938 9.89959 15.7939 10.8663C15.7926 12.1626 15.2683 13.4054 14.3362 14.322C13.404 15.2386 12.1402 15.7542 10.8219 15.7555ZM10.8219 7.43634C10.1321 7.4365 9.45774 7.63781 8.88423 8.0148C8.31072 8.39179 7.86378 8.92754 7.5999 9.55431C7.33602 10.1811 7.26705 10.8707 7.40174 11.536C7.53643 12.2013 7.86871 12.8124 8.35656 13.292C8.84442 13.7716 9.46596 14.0982 10.1426 14.2305C10.8192 14.3628 11.5205 14.2948 12.1578 14.0352C12.7951 13.7755 13.3398 13.3359 13.7231 12.7719C14.1063 12.2078 14.3109 11.5447 14.3109 10.8663C14.31 9.95677 13.9421 9.08472 13.2879 8.44164C12.6338 7.79856 11.7469 7.437 10.8219 7.43634Z" fill="#667280"/>
<path d="M16.7379 6.22778C17.2597 6.22778 17.6828 5.81178 17.6828 5.29861C17.6828 4.78545 17.2597 4.36945 16.7379 4.36945C16.216 4.36945 15.793 4.78545 15.793 5.29861C15.793 5.81178 16.216 6.22778 16.7379 6.22778Z" fill="#667280"/>
</svg>
