<svg width="24" height="24" viewBox="0 0 24 24" fill="none" xmlns="http://www.w3.org/2000/svg">
<g clip-path="url(#clip0_903_2021)">
<path d="M6.73333 0C1.8 0 0 1.8 0 6.73333V17.2667C0 22.2 1.8 24 6.73333 24H17.2667C22.2 24 24 22.2 24 17.2667V6.73333C24 1.8 22.2 0 17.2667 0H6.73333Z" fill="url(#paint0_linear_903_2021)"/>
<path d="M10.468 13.9333H11.4013L10.9346 12.8L10.468 13.9333ZM10.2013 14.4667L9.93463 15.1333H9.26797L10.668 12H11.2013L12.6013 15.1333H11.9346L11.668 14.4667H10.2013ZM20.7346 15.1333H21.3346V12H20.7346V15.1333ZM18.2013 13.8H19.3346V13.2H18.2013V12.5333H19.868V12H17.5346V15.1333H19.9346V14.5333H18.2013V13.8ZM15.7346 14.1333L15.0013 12H14.468L13.7346 14.1333L13.068 12H12.4013L13.468 15.1333H14.0013L14.7346 13.0667L15.468 15.1333H16.0013L17.068 12H16.4013L15.7346 14.1333ZM8.33464 13.8C8.33464 14.3333 8.06797 14.6 7.6013 14.6C7.13463 14.6 6.86797 14.3333 6.86797 13.8V12H6.2013V13.8C6.2013 14.6667 6.66797 15.2 7.53464 15.2C8.4013 15.2 8.86797 14.6667 8.86797 13.8V12H8.2013V13.8H8.33464ZM4.73464 12H5.4013V15.1333H4.73464V13.8667H3.33464V15.1333H2.66797V12H3.33464V13.2667H4.8013V12H4.73464Z" fill="white"/>
<path d="M12 8C9.8 8 8 6.2 8 4H8.53333C8.53333 5.86667 10.0667 7.46667 12 7.46667C13.9333 7.46667 15.4667 5.93333 15.4667 4H16C16 6.2 14.2 8 12 8Z" fill="white"/>
</g>
<defs>
<linearGradient id="paint0_linear_903_2021" x1="11.9992" y1="0.0008" x2="11.9992" y2="24.0008" gradientUnits="userSpaceOnUse">
<stop stop-color="#FB6361"/>
<stop offset="1" stop-color="#ED3E45"/>
</linearGradient>
<clipPath id="clip0_903_2021">
<rect width="24" height="24" fill="white"/>
</clipPath>
</defs>
</svg>
