<svg width="21" height="26" viewBox="0 0 21 26" fill="none" xmlns="http://www.w3.org/2000/svg">
<path d="M16.5046 11.5221C16.5041 10.8519 16.6506 10.1898 16.934 9.5824C17.2174 8.97506 17.6306 8.4373 18.1444 8.00709C15.6594 6.01709 12.4145 8.06808 10.5115 8.05408C8.46351 8.03908 5.34354 5.61309 2.34354 8.74509C-0.794456 12.0221 -0.356464 17.9591 1.63554 21.0231C3.62754 24.0871 4.84556 25.1001 6.45756 25.1001C8.06956 25.1001 9.62148 23.6001 10.7575 23.6261C11.8225 23.6501 13.1475 25.0821 14.7575 25.0821C16.3675 25.0821 17.4264 24.2071 19.4204 21.1381C20.3366 19.6123 20.8573 17.882 20.9355 16.1041C19.747 16.0636 18.6207 15.5633 17.7941 14.7084C16.9675 13.8536 16.5052 12.7112 16.5046 11.5221Z" fill="white"/>
<path d="M14.3401 7.25632C13.0808 7.60028 11.8019 7.86746 10.5102 8.05633C8.46317 8.04133 5.34108 5.61634 2.34208 8.74634C-0.796921 12.0233 -0.357906 17.9543 1.63309 21.0213C3.62409 24.0883 4.84409 25.0963 6.45609 25.0963C7.51509 24.9612 8.53164 24.5956 9.43412 24.0253L14.3401 7.25632Z" fill="#E9EDF5"/>
<path d="M14.4444 0.907072C13.2649 1.11021 12.1935 1.71906 11.4152 2.62839C10.637 3.53771 10.201 4.69036 10.1825 5.88708C10.1794 5.92462 10.1851 5.96236 10.1994 5.99719C10.2137 6.03203 10.2361 6.06296 10.2647 6.08746C10.2933 6.11196 10.3274 6.12932 10.364 6.13812C10.4006 6.14692 10.4388 6.14692 10.4754 6.13809C11.6363 5.88411 12.6928 5.28402 13.5055 4.41708C13.6476 4.24382 13.7782 4.06144 13.8964 3.87109C14.4156 3.02076 14.7002 2.04812 14.7214 1.05209C14.7007 0.998421 14.6612 0.954107 14.6102 0.927427C14.5592 0.900748 14.5003 0.893506 14.4444 0.907072Z" fill="#E9EDF5"/>
</svg>
