<svg width="23" height="22" viewBox="0 0 23 22" fill="none" xmlns="http://www.w3.org/2000/svg">
<path d="M13.1735 13.1266C11.4336 14.905 11.3323 17.1325 11.1666 22C15.7142 22 18.8718 22 20.492 20.4141C22.1122 18.8283 22.0846 15.51 22.0846 11.1192C17.1964 11.2658 14.9594 11.3942 13.1735 13.1266ZM3.00054e-05 11.1192C3.00054e-05 15.51 3.3021e-05 18.8008 1.59263 20.4141C3.18522 22.0275 6.37041 22 10.918 22C10.7708 17.1325 10.6511 14.905 8.9112 13.1266C7.17131 11.3483 4.88828 11.2658 3.00054e-05 11.1192ZM10.918 0C6.37041 0 3.21284 0 1.59263 1.58583C-0.0275842 3.17166 3.00054e-05 6.48999 3.00054e-05 10.8808C4.88828 10.7342 7.12528 10.6058 8.9112 8.87332C10.6971 7.14082 10.7708 4.86749 10.918 0ZM13.1735 8.87332C11.4336 7.09499 11.3323 4.86749 11.1666 0C15.7235 0 18.8718 0 20.492 1.58583C22.1122 3.17166 22.0846 6.48999 22.0846 10.8808C17.1964 10.7342 14.9594 10.6058 13.1735 8.87332Z" fill="white"/>
</svg>
