<svg width="23" height="26" viewBox="0 0 23 26" fill="none" xmlns="http://www.w3.org/2000/svg">
<path d="M1.07795 1.27448C0.771914 1.64644 0.618558 2.12075 0.648936 2.60147V23.3925C0.615505 23.8716 0.773393 24.3445 1.08796 24.7075L1.15998 24.7704L12.807 13.1205V12.8605L1.14698 1.21045L1.07795 1.27448Z" fill="#4DA2D6"/>
<path d="M16.6868 17.0137L12.8008 13.1297V12.8567L16.6858 8.9707L16.7698 9.02271L21.3698 11.6337C22.6848 12.3757 22.6848 13.5987 21.3698 14.3477L16.7698 16.9617L16.6868 17.0137Z" fill="#F2BA48"/>
<path d="M16.7711 16.9637L12.801 12.9946L1.08203 24.7177C1.34969 24.9527 1.6907 25.0875 2.04675 25.099C2.4028 25.1105 2.7518 24.998 3.03406 24.7806L16.77 16.9637" fill="#FF614D"/>
<path d="M16.7711 9.02361L3.03204 1.2236C2.75084 1.00363 2.40126 0.889509 2.04443 0.901209C1.68761 0.912908 1.34627 1.04967 1.08008 1.28759L12.803 12.9956L16.7711 9.02361Z" fill="#5CCC81"/>
</svg>
