<svg width="24" height="24" viewBox="0 0 24 24" fill="none" xmlns="http://www.w3.org/2000/svg">
<path d="M10.3955 23C6.00574 23 3.73669 22.9245 2.38927 21.4533C0.999993 19.9349 1 17.2837 1 11.9986C1 1.41122 1.41122 1 11.9986 1C22.586 1 23 1.41122 23 11.9986C23 22.586 22.5887 22.9982 11.9986 22.9982H10.3955V23ZM11.9986 2.76958C7.34497 2.76958 4.77932 2.76956 3.77489 3.77034C2.77047 4.77113 2.77412 7.34042 2.77412 11.9941C2.77412 16.6687 2.77411 19.2434 3.69847 20.2542C4.59281 21.2304 6.93101 21.2222 11.1461 21.2259H12.0032C16.6596 21.2259 19.2243 21.2259 20.2296 20.2251C21.235 19.2243 21.2304 16.655 21.2304 11.9995C21.2304 7.34407 21.2304 4.78024 20.2296 3.77581C19.2288 2.77139 16.655 2.77047 11.9986 2.77047V2.76958Z" fill="white" stroke="white" stroke-width="0.4"/>
<path d="M12.0001 17.3374C10.9446 17.3372 9.91289 17.0241 9.03538 16.4376C8.15787 15.8511 7.47397 15.0176 7.07014 14.0424C6.66632 13.0673 6.5607 11.9943 6.76666 10.9591C6.97261 9.92393 7.48088 8.97304 8.22721 8.22672C8.97353 7.48039 9.9244 6.97212 10.9596 6.76616C11.9948 6.56021 13.0678 6.66584 14.0429 7.06966C15.0181 7.47349 15.8516 8.15739 16.4381 9.0349C17.0246 9.91241 17.3377 10.9441 17.3379 11.9996C17.3365 13.4148 16.7736 14.7717 15.7729 15.7724C14.7722 16.7731 13.4153 17.336 12.0001 17.3374V17.3374ZM12.0001 8.25484C11.2595 8.25502 10.5356 8.4748 9.91985 8.88639C9.30415 9.29798 8.82431 9.88289 8.54102 10.5672C8.25773 11.2515 8.18369 12.0044 8.32829 12.7307C8.47288 13.4571 8.82961 14.1242 9.35336 14.6479C9.87711 15.1715 10.5444 15.5281 11.2708 15.6725C11.9971 15.8169 12.75 15.7427 13.4342 15.4592C14.1185 15.1757 14.7033 14.6958 15.1147 14.08C15.5261 13.4642 15.7457 12.7402 15.7457 11.9996C15.7448 11.0066 15.3498 10.0545 14.6475 9.3524C13.9453 8.6503 12.9931 8.25557 12.0001 8.25484V8.25484Z" fill="white" stroke="white" stroke-width="0.4"/>
<path d="M19.1648 5.92166C19.1648 6.37146 18.8002 6.73609 18.3504 6.73609C17.9006 6.73609 17.5359 6.37146 17.5359 5.92166C17.5359 5.47186 17.9006 5.10723 18.3504 5.10723C18.8002 5.10723 19.1648 5.47186 19.1648 5.92166Z" fill="white" stroke="white" stroke-width="0.4"/>
</svg>
