<svg width="17" height="20" viewBox="0 0 17 20" fill="none" xmlns="http://www.w3.org/2000/svg">
<path d="M1 8.56344C1 4.43793 4.43793 1 8.56344 1C12.689 1 16.1269 4.43793 16.1269 8.56344V8.66166C15.9304 11.412 14.6535 13.9659 12.689 15.8322C11.6085 16.9127 10.4297 17.895 9.1528 18.779C8.85812 19.0737 8.26876 19.0737 7.97408 18.779C6.10778 17.502 4.3397 15.9304 2.96453 14.1623C1.78581 12.4925 1.09823 10.6262 1 8.56344Z" stroke="#5CCC81" stroke-miterlimit="10" stroke-linecap="round" stroke-linejoin="round"/>
<path d="M8.56308 11.1174C9.91931 11.1174 11.0187 10.0179 11.0187 8.66172C11.0187 7.30549 9.91931 6.20605 8.56308 6.20605C7.20686 6.20605 6.10742 7.30549 6.10742 8.66172C6.10742 10.0179 7.20686 11.1174 8.56308 11.1174Z" stroke="#5CCC81" stroke-miterlimit="10" stroke-linecap="round" stroke-linejoin="round"/>
</svg>
