<svg width="20" height="20" viewBox="0 0 20 20" fill="none" xmlns="http://www.w3.org/2000/svg">
<path d="M1.50047 3.27384C1.87884 2.70628 3.48693 0.909004 4.62205 1.0036C5.00042 1.09819 5.2842 1.19278 5.56798 1.47656C6.51392 2.4225 7.27067 3.46303 7.93282 4.59815C8.12201 5.73327 6.7977 6.30083 7.27067 7.43595C8.2166 9.89538 10.1085 11.7872 12.5679 12.7332C13.703 13.1116 14.3652 11.7872 15.4057 12.071C16.5408 12.7332 17.5814 13.4899 18.5273 14.4359C18.8111 14.7196 19.0003 15.0034 19.0003 15.3818C19.0003 16.6115 17.1084 18.3142 16.73 18.5034C15.8787 19.1655 14.7435 19.1655 13.3246 18.5034C9.44632 16.8953 3.20315 10.7467 1.59506 6.6792C0.932906 5.2603 0.932906 4.12518 1.50047 3.27384Z" stroke="#5CCC81" stroke-miterlimit="10" stroke-linecap="round" stroke-linejoin="round"/>
</svg>
