<svg width="55" height="54" viewBox="0 0 55 54" fill="none" xmlns="http://www.w3.org/2000/svg">
<rect x="0.400391" width="54" height="54" rx="27" fill="#0098C8"/>
<path d="M38.16 17.4008C37.8699 17.1106 37.5798 17.1106 37.1446 17.2557L16.9806 24.799C16.5455 24.9441 16.4004 25.3793 16.4004 25.6694C16.4004 26.1046 16.6905 26.3947 16.9806 26.5398L22.7832 28.7158C22.7832 28.7158 22.9283 28.7158 22.9283 28.8608L24.3789 34.0832C24.524 34.5183 24.8141 34.6634 25.1042 34.8085C25.5394 34.8085 25.8296 34.6634 26.1197 34.3733L27.8605 32.0523L28.0055 31.9072H28.1506L33.518 36.5492C33.663 36.6943 33.9532 36.8394 34.0982 36.8394C34.2433 36.8394 34.3884 36.8394 34.3884 36.8394C34.6785 36.6943 34.9686 36.4042 34.9686 36.114L38.3051 18.4162C38.4502 17.981 38.4502 17.5458 38.16 17.4008ZM25.1042 33.793L23.6536 28.5707C23.6536 28.5707 23.6536 28.5707 23.6536 28.4256C23.5085 28.1355 23.6536 27.7003 23.9437 27.5553L37.2897 18.1261L26.2648 29.296L25.1042 33.793C25.2493 33.9381 25.1042 33.9381 25.1042 33.793Z" fill="white"/>
</svg>
