<svg width="55" height="54" viewBox="0 0 55 54" fill="none" xmlns="http://www.w3.org/2000/svg">
<rect x="0.400391" width="54" height="54" rx="27" fill="#7B61FF"/>
<path d="M27.401 14C17.6128 14 14.248 17.0588 14.248 25.4706C14.248 31.8941 16.3892 35.1059 21.2833 36.3294C21.2833 36.3294 21.7666 36.4824 21.7422 36.4824V40L24.801 36.9412C25.1069 36.9412 25.2598 36.9412 25.5657 36.9412C26.1775 36.9412 27.0951 36.9412 27.401 36.9412C37.1892 36.9412 40.5539 33.8824 40.5539 25.4706C40.5539 17.0588 37.0363 14 27.401 14ZM27.401 35.8706C27.248 35.8706 26.9422 35.8706 26.6363 35.8706C26.3304 35.8706 25.8716 35.8706 25.4128 35.8706C25.2598 35.8706 24.801 35.8706 24.801 35.8706L22.201 38.6235V35.5647L21.2833 35.4118C17.001 34.3412 15.1657 31.5882 15.1657 25.6235C15.1657 17.8235 18.0716 15.3765 27.0951 15.3765C36.1186 15.3765 39.0245 17.8235 39.0245 25.6235C39.3304 33.4235 36.4245 35.8706 27.401 35.8706Z" fill="white"/>
<path d="M32.9054 30.0591V29.1414C32.9054 28.8355 32.7524 28.6826 32.4466 28.6826C31.376 28.6826 30.1524 28.3767 29.2348 28.0708C29.0818 27.9179 28.9289 28.0708 28.776 28.2238L28.0113 28.9885C27.8583 29.1414 27.7054 29.1414 27.3995 29.1414C25.7171 28.2238 24.3407 26.8473 23.423 25.165C23.2701 25.012 23.423 24.7061 23.576 24.5532L24.4936 23.6355C24.6466 23.4826 24.6466 23.3297 24.6466 23.1767C24.3407 22.2591 24.0348 21.3414 24.0348 20.2708C24.0348 19.965 23.8818 19.812 23.576 19.812H22.5054H21.5877C21.2818 19.812 21.1289 19.965 21.1289 20.2708V20.5767C21.1289 26.3885 26.4818 31.5885 32.1407 31.5885H32.4466C32.7524 31.5885 32.9054 31.4355 32.9054 31.1297V30.0591Z" fill="white"/>
<path d="M26.6348 21.8003C27.7054 21.4944 28.7759 21.8003 29.5406 22.565C30.3054 23.3297 30.7642 24.5533 30.3054 25.4709C29.9995 24.5533 29.5406 23.6356 28.9289 23.0239C28.4701 22.565 27.7054 22.1062 26.6348 21.8003Z" fill="white"/>
<path d="M26.6348 19.8119C28.1642 19.506 29.8465 20.1178 30.9171 21.1884C31.9877 22.259 32.5995 23.9413 32.2936 25.4707C31.9877 23.9413 31.3759 22.7178 30.3054 21.8001C29.3877 20.7295 28.1642 20.1178 26.6348 19.8119Z" fill="white"/>
<path d="M26.6348 23.6357C27.0936 23.3298 27.8583 23.4828 28.3171 23.9416C28.7759 24.4004 28.9289 25.0122 28.623 25.6239C28.3171 25.1651 28.0112 24.8592 27.8583 24.5533C27.3995 24.2475 27.2465 23.9416 26.6348 23.6357Z" fill="white"/>
</svg>
