<svg width="55" height="54" viewBox="0 0 55 54" fill="none" xmlns="http://www.w3.org/2000/svg">
<rect x="0.400391" width="54" height="54" rx="27" fill="#33B758"/>
<path d="M27.4001 15.2928C33.146 15.2928 37.7426 20.0331 37.7426 25.9227C37.7426 31.8122 33.146 36.5525 27.4001 36.5525C26.1073 36.5525 24.8145 36.2652 23.6653 35.8343L21.367 37.1271L21.9415 34.9724C19.0686 33.105 17.0576 29.8011 17.0576 25.9227C17.0576 20.1768 21.6542 15.2928 27.4001 15.2928ZM27.4001 14C20.936 14 15.6211 19.4586 15.6211 26.0663C15.6211 29.9448 17.3449 33.3923 20.3614 35.6906L19.6432 40L23.8089 37.558C24.9581 37.989 26.2509 38.1326 27.4001 38.1326C33.8642 38.1326 39.1791 32.674 39.1791 26.0663C39.1791 19.4586 33.8642 14 27.4001 14Z" fill="white"/>
<path d="M32.6042 30.2493V29.3387C32.6042 29.0785 32.4741 28.9485 32.2139 28.9485C31.3033 28.9485 30.5228 28.6883 29.7423 28.298C29.6122 28.1679 29.352 28.298 29.2219 28.4281L28.4414 29.2086C28.3113 29.3387 28.1812 29.3387 27.9211 29.3387C26.36 28.5582 25.1893 27.2573 24.4087 25.8264C24.2786 25.6963 24.4087 25.4361 24.5388 25.306L25.3193 24.5255C25.4494 24.3954 25.4494 24.2653 25.4494 24.0052C25.0592 23.2247 24.9291 22.4441 24.799 21.4034C24.799 21.1433 24.6689 21.0132 24.4087 21.0132H23.368H22.5875C22.3274 21.0132 22.1973 21.1433 22.1973 21.4034V21.6636C22.1973 26.8671 27.0105 31.5502 31.9538 31.5502H32.2139C32.4741 31.5502 32.6042 31.4201 32.6042 31.1599V30.2493Z" fill="white"/>
</svg>
