<svg width="235" height="211" viewBox="0 0 235 211" fill="none" xmlns="http://www.w3.org/2000/svg">
<path fill-rule="evenodd" clip-rule="evenodd" d="M3.33971 4.677V8.0178H4.67601V4.677H8.0178V3.3407L4.67601 3.3407V0H3.33971V3.3407L1.16823e-07 3.3407L0 4.677H3.33971Z" fill="#DAE3F1"/>
<path fill-rule="evenodd" clip-rule="evenodd" d="M3.33971 55.0745V58.4153H4.67601V55.0745H8.0178V53.7382L4.67601 53.7382V50.3975H3.33971V53.7382L1.16823e-07 53.7382L0 55.0745H3.33971Z" fill="#DAE3F1"/>
<path fill-rule="evenodd" clip-rule="evenodd" d="M204.932 4.677V8.0178H206.268V4.677H209.608V3.3407L206.268 3.3407V0H204.932V3.3407L201.59 3.3407L201.59 4.677H204.932Z" fill="#DAE3F1"/>
<path fill-rule="evenodd" clip-rule="evenodd" d="M204.932 55.0745V58.4153H206.268V55.0745H209.608V53.7382L206.268 53.7382V50.3975H204.932V53.7382L201.59 53.7382L201.59 55.0745H204.932Z" fill="#DAE3F1"/>
<path fill-rule="evenodd" clip-rule="evenodd" d="M53.7399 4.67706V8.0178H55.0762V4.67706H58.4162V3.34076L55.0762 3.34076V0H53.7399V3.34076L50.3984 3.34075L50.3984 4.67706H53.7399Z" fill="#DAE3F1"/>
<path fill-rule="evenodd" clip-rule="evenodd" d="M53.7399 55.0745V58.4153H55.0762V55.0745H58.4162V53.7382L55.0762 53.7382V50.3975H53.7399V53.7382L50.3984 53.7382L50.3984 55.0745H53.7399Z" fill="#DAE3F1"/>
<path fill-rule="evenodd" clip-rule="evenodd" d="M28.5409 4.677V8.0178H29.8772V4.677H33.217V3.3407L29.8772 3.3407V0H28.5409V3.3407L25.1992 3.3407L25.1992 4.677H28.5409Z" fill="#DAE3F1"/>
<path fill-rule="evenodd" clip-rule="evenodd" d="M28.5409 55.0745V58.4153H29.8772V55.0745H33.217V53.7382L29.8772 53.7382V50.3975H28.5409V53.7382L25.1992 53.7382L25.1992 55.0745H28.5409Z" fill="#DAE3F1"/>
<path fill-rule="evenodd" clip-rule="evenodd" d="M230.129 4.67706V8.0178H231.465V4.67706H234.807V3.34076L231.465 3.34076V0H230.129V3.34076L226.789 3.34075L226.789 4.67706H230.129Z" fill="#DAE3F1"/>
<path fill-rule="evenodd" clip-rule="evenodd" d="M230.129 55.0745V58.4153H231.465V55.0745H234.807V53.7382L231.465 53.7382V50.3975H230.129V53.7382L226.789 53.7382L226.789 55.0745H230.129Z" fill="#DAE3F1"/>
<path fill-rule="evenodd" clip-rule="evenodd" d="M78.9374 4.677V8.0178H80.2737V4.677H83.6155V3.3407L80.2737 3.3407V0H78.9374V3.3407L75.5977 3.3407L75.5977 4.677H78.9374Z" fill="#DAE3F1"/>
<path fill-rule="evenodd" clip-rule="evenodd" d="M78.9374 55.0745V58.4153H80.2737V55.0745H83.6155V53.7382L80.2737 53.7382V50.3975H78.9374V53.7382L75.5977 53.7382L75.5977 55.0745H78.9374Z" fill="#DAE3F1"/>
<path fill-rule="evenodd" clip-rule="evenodd" d="M104.136 4.67706V8.0178H105.473V4.67706H108.813V3.34076L105.473 3.34076V0H104.136V3.34076L100.795 3.34075V4.67706H104.136Z" fill="#DAE3F1"/>
<path fill-rule="evenodd" clip-rule="evenodd" d="M104.136 55.0745V58.4153H105.473V55.0745H108.813V53.7382L105.473 53.7382V50.3975H104.136V53.7382L100.795 53.7382V55.0745H104.136Z" fill="#DAE3F1"/>
<path fill-rule="evenodd" clip-rule="evenodd" d="M154.535 4.67706V8.0178H155.871V4.67706H159.211V3.34076L155.871 3.34076V0H154.535V3.34076L151.193 3.34075L151.193 4.67706H154.535Z" fill="#DAE3F1"/>
<path fill-rule="evenodd" clip-rule="evenodd" d="M154.535 55.0745V58.4153H155.871V55.0745H159.211V53.7382L155.871 53.7382V50.3975H154.535V53.7382L151.193 53.7382L151.193 55.0745H154.535Z" fill="#DAE3F1"/>
<path fill-rule="evenodd" clip-rule="evenodd" d="M129.336 4.67706V8.0178H130.672V4.67706H134.012V3.34076L130.672 3.34076V0H129.336V3.34076L125.994 3.34075L125.994 4.67706H129.336Z" fill="#DAE3F1"/>
<path fill-rule="evenodd" clip-rule="evenodd" d="M129.336 55.0745V58.4153H130.672V55.0745H134.012V53.7382L130.672 53.7382V50.3975H129.336V53.7382L125.994 53.7382L125.994 55.0745H129.336Z" fill="#DAE3F1"/>
<path fill-rule="evenodd" clip-rule="evenodd" d="M179.73 4.677V8.0178H181.067V4.677H184.408V3.3407L181.067 3.3407V0H179.73V3.3407L176.391 3.3407L176.391 4.677H179.73Z" fill="#DAE3F1"/>
<path fill-rule="evenodd" clip-rule="evenodd" d="M179.73 55.0745V58.4153H181.067V55.0745H184.408V53.7382L181.067 53.7382V50.3975H179.73V53.7382L176.391 53.7382L176.391 55.0745H179.73Z" fill="#DAE3F1"/>
<path fill-rule="evenodd" clip-rule="evenodd" d="M3.33971 29.8757V33.2165H4.67601V29.8757H8.0178V28.5394L4.67601 28.5394V25.1987H3.33971V28.5394L1.16823e-07 28.5394L0 29.8757H3.33971Z" fill="#DAE3F1"/>
<path fill-rule="evenodd" clip-rule="evenodd" d="M3.33971 80.2734V83.6142H4.67601V80.2734H8.0178V78.9371L4.67601 78.9371V75.5964H3.33971V78.9371L1.16823e-07 78.9371L0 80.2734H3.33971Z" fill="#DAE3F1"/>
<path fill-rule="evenodd" clip-rule="evenodd" d="M204.932 29.8757V33.2165H206.268V29.8757H209.608V28.5394L206.268 28.5394V25.1987H204.932V28.5394L201.59 28.5394L201.59 29.8757H204.932Z" fill="#DAE3F1"/>
<path fill-rule="evenodd" clip-rule="evenodd" d="M204.932 80.2734V83.6142H206.268V80.2734H209.608V78.9371L206.268 78.9371V75.5964H204.932V78.9371L201.59 78.9371L201.59 80.2734H204.932Z" fill="#DAE3F1"/>
<path fill-rule="evenodd" clip-rule="evenodd" d="M53.7399 29.8758V33.2165H55.0762V29.8758H58.4162V28.5395L55.0762 28.5395V25.1987H53.7399V28.5395L50.3984 28.5395L50.3984 29.8758H53.7399Z" fill="#DAE3F1"/>
<path fill-rule="evenodd" clip-rule="evenodd" d="M53.7399 80.2735V83.6142H55.0762V80.2735H58.4162V78.9372L55.0762 78.9372V75.5964H53.7399V78.9372L50.3984 78.9372L50.3984 80.2735H53.7399Z" fill="#DAE3F1"/>
<path fill-rule="evenodd" clip-rule="evenodd" d="M28.5409 29.8757V33.2165H29.8772V29.8757H33.217V28.5394L29.8772 28.5394V25.1987H28.5409V28.5394L25.1992 28.5394L25.1992 29.8757H28.5409Z" fill="#DAE3F1"/>
<path fill-rule="evenodd" clip-rule="evenodd" d="M28.5409 80.2734V83.6142H29.8772V80.2734H33.217V78.9371L29.8772 78.9371V75.5964H28.5409V78.9371L25.1992 78.9371L25.1992 80.2734H28.5409Z" fill="#DAE3F1"/>
<path fill-rule="evenodd" clip-rule="evenodd" d="M230.129 29.8758V33.2165H231.465V29.8758H234.807V28.5395L231.465 28.5395V25.1987H230.129V28.5395L226.789 28.5395L226.789 29.8758H230.129Z" fill="#DAE3F1"/>
<path fill-rule="evenodd" clip-rule="evenodd" d="M230.129 80.2735V83.6142H231.465V80.2735H234.807V78.9372L231.465 78.9372V75.5964H230.129V78.9372L226.789 78.9372L226.789 80.2735H230.129Z" fill="#DAE3F1"/>
<path fill-rule="evenodd" clip-rule="evenodd" d="M78.9374 29.8757V33.2165H80.2737V29.8757H83.6155V28.5394L80.2737 28.5394V25.1987H78.9374V28.5394L75.5977 28.5394L75.5977 29.8757H78.9374Z" fill="#DAE3F1"/>
<path fill-rule="evenodd" clip-rule="evenodd" d="M78.9374 80.2734V83.6142H80.2737V80.2734H83.6155V78.9371L80.2737 78.9371V75.5964H78.9374V78.9371L75.5977 78.9371L75.5977 80.2734H78.9374Z" fill="#DAE3F1"/>
<path fill-rule="evenodd" clip-rule="evenodd" d="M104.136 29.8758V33.2165H105.473V29.8758H108.813V28.5395L105.473 28.5395V25.1987H104.136V28.5395L100.795 28.5395V29.8758H104.136Z" fill="#DAE3F1"/>
<path fill-rule="evenodd" clip-rule="evenodd" d="M104.136 80.2735V83.6142H105.473V80.2735H108.813V78.9372L105.473 78.9372V75.5964H104.136V78.9372L100.795 78.9372V80.2735H104.136Z" fill="#DAE3F1"/>
<path fill-rule="evenodd" clip-rule="evenodd" d="M154.535 29.8758V33.2165H155.871V29.8758H159.211V28.5395L155.871 28.5395V25.1987H154.535V28.5395L151.193 28.5395L151.193 29.8758H154.535Z" fill="#DAE3F1"/>
<path fill-rule="evenodd" clip-rule="evenodd" d="M154.535 80.2735V83.6142H155.871V80.2735H159.211V78.9372L155.871 78.9372V75.5964H154.535V78.9372L151.193 78.9372L151.193 80.2735H154.535Z" fill="#DAE3F1"/>
<path fill-rule="evenodd" clip-rule="evenodd" d="M129.336 29.8758V33.2165H130.672V29.8758H134.012V28.5395L130.672 28.5395V25.1987H129.336V28.5395L125.994 28.5395L125.994 29.8758H129.336Z" fill="#DAE3F1"/>
<path fill-rule="evenodd" clip-rule="evenodd" d="M129.336 80.2735V83.6142H130.672V80.2735H134.012V78.9372L130.672 78.9372V75.5964H129.336V78.9372L125.994 78.9372L125.994 80.2735H129.336Z" fill="#DAE3F1"/>
<path fill-rule="evenodd" clip-rule="evenodd" d="M179.73 29.8757V33.2165H181.067V29.8757H184.408V28.5394L181.067 28.5394V25.1987H179.73V28.5394L176.391 28.5394L176.391 29.8757H179.73Z" fill="#DAE3F1"/>
<path fill-rule="evenodd" clip-rule="evenodd" d="M179.73 80.2734V83.6142H181.067V80.2734H184.408V78.9371L181.067 78.9371V75.5964H179.73V78.9371L176.391 78.9371L176.391 80.2734H179.73Z" fill="#DAE3F1"/>
<path fill-rule="evenodd" clip-rule="evenodd" d="M3.33971 105.677V109.018H4.67601V105.677H8.0178V104.341L4.67601 104.341V101H3.33971V104.341L1.16823e-07 104.341L0 105.677H3.33971Z" fill="#DAE3F1"/>
<path fill-rule="evenodd" clip-rule="evenodd" d="M3.33971 156.074V159.415H4.67601V156.074H8.0178V154.738L4.67601 154.738V151.397H3.33971V154.738L1.16823e-07 154.738L0 156.074H3.33971Z" fill="#DAE3F1"/>
<path fill-rule="evenodd" clip-rule="evenodd" d="M204.932 105.677V109.018H206.268V105.677H209.608V104.341L206.268 104.341V101H204.932V104.341L201.59 104.341L201.59 105.677H204.932Z" fill="#DAE3F1"/>
<path fill-rule="evenodd" clip-rule="evenodd" d="M204.932 156.074V159.415H206.268V156.074H209.608V154.738L206.268 154.738V151.397H204.932V154.738L201.59 154.738L201.59 156.074H204.932Z" fill="#DAE3F1"/>
<path fill-rule="evenodd" clip-rule="evenodd" d="M53.7399 105.677V109.018H55.0762V105.677H58.4162V104.341L55.0762 104.341V101H53.7399V104.341L50.3984 104.341L50.3984 105.677H53.7399Z" fill="#DAE3F1"/>
<path fill-rule="evenodd" clip-rule="evenodd" d="M53.7399 156.075V159.415H55.0762V156.075H58.4162V154.738L55.0762 154.738V151.397H53.7399V154.738L50.3984 154.738L50.3984 156.075H53.7399Z" fill="#DAE3F1"/>
<path fill-rule="evenodd" clip-rule="evenodd" d="M28.5409 105.677V109.018H29.8772V105.677H33.217V104.341L29.8772 104.341V101H28.5409V104.341L25.1992 104.341L25.1992 105.677H28.5409Z" fill="#DAE3F1"/>
<path fill-rule="evenodd" clip-rule="evenodd" d="M28.5409 156.074V159.415H29.8772V156.074H33.217V154.738L29.8772 154.738V151.397H28.5409V154.738L25.1992 154.738L25.1992 156.074H28.5409Z" fill="#DAE3F1"/>
<path fill-rule="evenodd" clip-rule="evenodd" d="M230.129 105.677V109.018H231.465V105.677H234.807V104.341L231.465 104.341V101H230.129V104.341L226.789 104.341L226.789 105.677H230.129Z" fill="#DAE3F1"/>
<path fill-rule="evenodd" clip-rule="evenodd" d="M230.129 156.075V159.415H231.465V156.075H234.807V154.738L231.465 154.738V151.397H230.129V154.738L226.789 154.738L226.789 156.075H230.129Z" fill="#DAE3F1"/>
<path fill-rule="evenodd" clip-rule="evenodd" d="M78.9374 105.677V109.018H80.2737V105.677H83.6155V104.341L80.2737 104.341V101H78.9374V104.341L75.5977 104.341L75.5977 105.677H78.9374Z" fill="#DAE3F1"/>
<path fill-rule="evenodd" clip-rule="evenodd" d="M78.9374 156.074V159.415H80.2737V156.074H83.6155V154.738L80.2737 154.738V151.397H78.9374V154.738L75.5977 154.738L75.5977 156.074H78.9374Z" fill="#DAE3F1"/>
<path fill-rule="evenodd" clip-rule="evenodd" d="M104.136 105.677V109.018H105.473V105.677H108.813V104.341L105.473 104.341V101H104.136V104.341L100.795 104.341V105.677H104.136Z" fill="#DAE3F1"/>
<path fill-rule="evenodd" clip-rule="evenodd" d="M104.136 156.075V159.415H105.473V156.075H108.813V154.738L105.473 154.738V151.397H104.136V154.738L100.795 154.738V156.075H104.136Z" fill="#DAE3F1"/>
<path fill-rule="evenodd" clip-rule="evenodd" d="M154.535 105.677V109.018H155.871V105.677H159.211V104.341L155.871 104.341V101H154.535V104.341L151.193 104.341L151.193 105.677H154.535Z" fill="#DAE3F1"/>
<path fill-rule="evenodd" clip-rule="evenodd" d="M154.535 156.075V159.415H155.871V156.075H159.211V154.738L155.871 154.738V151.397H154.535V154.738L151.193 154.738L151.193 156.075H154.535Z" fill="#DAE3F1"/>
<path fill-rule="evenodd" clip-rule="evenodd" d="M129.336 105.677V109.018H130.672V105.677H134.012V104.341L130.672 104.341V101H129.336V104.341L125.994 104.341L125.994 105.677H129.336Z" fill="#DAE3F1"/>
<path fill-rule="evenodd" clip-rule="evenodd" d="M129.336 156.075V159.415H130.672V156.075H134.012V154.738L130.672 154.738V151.397H129.336V154.738L125.994 154.738L125.994 156.075H129.336Z" fill="#DAE3F1"/>
<path fill-rule="evenodd" clip-rule="evenodd" d="M179.73 105.677V109.018H181.067V105.677H184.408V104.341L181.067 104.341V101H179.73V104.341L176.391 104.341L176.391 105.677H179.73Z" fill="#DAE3F1"/>
<path fill-rule="evenodd" clip-rule="evenodd" d="M179.73 156.074V159.415H181.067V156.074H184.408V154.738L181.067 154.738V151.397H179.73V154.738L176.391 154.738L176.391 156.074H179.73Z" fill="#DAE3F1"/>
<path fill-rule="evenodd" clip-rule="evenodd" d="M3.33971 130.876V134.217H4.67601V130.876H8.0178V129.539L4.67601 129.539V126.199H3.33971V129.539L1.16823e-07 129.539L0 130.876H3.33971Z" fill="#DAE3F1"/>
<path fill-rule="evenodd" clip-rule="evenodd" d="M3.33971 181.273V184.614H4.67601V181.273H8.0178V179.937L4.67601 179.937V176.596H3.33971V179.937L1.16823e-07 179.937L0 181.273H3.33971Z" fill="#DAE3F1"/>
<path fill-rule="evenodd" clip-rule="evenodd" d="M3.33971 206.677V210.018H4.67601V206.677H8.0178V205.341L4.67601 205.341V202H3.33971V205.341L1.16823e-07 205.341L0 206.677H3.33971Z" fill="#DAE3F1"/>
<path fill-rule="evenodd" clip-rule="evenodd" d="M204.932 181.273V184.614H206.268V181.273H209.608V179.937L206.268 179.937V176.596H204.932V179.937L201.59 179.937L201.59 181.273H204.932Z" fill="#DAE3F1"/>
<path fill-rule="evenodd" clip-rule="evenodd" d="M204.932 130.876V134.217H206.268V130.876H209.608V129.539L206.268 129.539V126.199H204.932V129.539L201.59 129.539L201.59 130.876H204.932Z" fill="#DAE3F1"/>
<path fill-rule="evenodd" clip-rule="evenodd" d="M53.7399 181.273V184.614H55.0762V181.273H58.4162V179.937L55.0762 179.937V176.596H53.7399V179.937L50.3984 179.937L50.3984 181.273H53.7399Z" fill="#DAE3F1"/>
<path fill-rule="evenodd" clip-rule="evenodd" d="M204.932 206.677V210.018H206.268V206.677H209.608V205.341L206.268 205.341V202H204.932V205.341L201.59 205.341L201.59 206.677H204.932Z" fill="#DAE3F1"/>
<path fill-rule="evenodd" clip-rule="evenodd" d="M28.5409 181.273V184.614H29.8772V181.273H33.217V179.937L29.8772 179.937V176.596H28.5409V179.937L25.1992 179.937L25.1992 181.273H28.5409Z" fill="#DAE3F1"/>
<path fill-rule="evenodd" clip-rule="evenodd" d="M53.7399 130.876V134.217H55.0762V130.876H58.4162V129.539L55.0762 129.539V126.199H53.7399V129.539L50.3984 129.539L50.3984 130.876H53.7399Z" fill="#DAE3F1"/>
<path fill-rule="evenodd" clip-rule="evenodd" d="M230.129 181.273V184.614H231.465V181.273H234.807V179.937L231.465 179.937V176.596H230.129V179.937L226.789 179.937L226.789 181.273H230.129Z" fill="#DAE3F1"/>
<path fill-rule="evenodd" clip-rule="evenodd" d="M53.7399 206.677V210.018H55.0762V206.677H58.4162V205.341L55.0762 205.341V202H53.7399V205.341L50.3984 205.341L50.3984 206.677H53.7399Z" fill="#DAE3F1"/>
<path fill-rule="evenodd" clip-rule="evenodd" d="M78.9374 181.273V184.614H80.2737V181.273H83.6155V179.937L80.2737 179.937V176.596H78.9374V179.937L75.5977 179.937L75.5977 181.273H78.9374Z" fill="#DAE3F1"/>
<path fill-rule="evenodd" clip-rule="evenodd" d="M28.5409 130.876V134.217H29.8772V130.876H33.217V129.539L29.8772 129.539V126.199H28.5409V129.539L25.1992 129.539L25.1992 130.876H28.5409Z" fill="#DAE3F1"/>
<path fill-rule="evenodd" clip-rule="evenodd" d="M104.136 181.273V184.614H105.473V181.273H108.813V179.937L105.473 179.937V176.596H104.136V179.937L100.795 179.937V181.273H104.136Z" fill="#DAE3F1"/>
<path fill-rule="evenodd" clip-rule="evenodd" d="M28.5409 206.677V210.018H29.8772V206.677H33.217V205.341L29.8772 205.341V202H28.5409V205.341L25.1992 205.341L25.1992 206.677H28.5409Z" fill="#DAE3F1"/>
<path fill-rule="evenodd" clip-rule="evenodd" d="M154.535 181.273V184.614H155.871V181.273H159.211V179.937L155.871 179.937V176.596H154.535V179.937L151.193 179.937L151.193 181.273H154.535Z" fill="#DAE3F1"/>
<path fill-rule="evenodd" clip-rule="evenodd" d="M230.129 130.876V134.217H231.465V130.876H234.807V129.539L231.465 129.539V126.199H230.129V129.539L226.789 129.539L226.789 130.876H230.129Z" fill="#DAE3F1"/>
<path fill-rule="evenodd" clip-rule="evenodd" d="M129.336 181.273V184.614H130.672V181.273H134.012V179.937L130.672 179.937V176.596H129.336V179.937L125.994 179.937L125.994 181.273H129.336Z" fill="#DAE3F1"/>
<path fill-rule="evenodd" clip-rule="evenodd" d="M230.129 206.677V210.018H231.465V206.677H234.807V205.341L231.465 205.341V202H230.129V205.341L226.789 205.341L226.789 206.677H230.129Z" fill="#DAE3F1"/>
<path fill-rule="evenodd" clip-rule="evenodd" d="M179.73 181.273V184.614H181.067V181.273H184.408V179.937L181.067 179.937V176.596H179.73V179.937L176.391 179.937L176.391 181.273H179.73Z" fill="#DAE3F1"/>
<path fill-rule="evenodd" clip-rule="evenodd" d="M78.9374 130.876V134.217H80.2737V130.876H83.6155V129.539L80.2737 129.539V126.199H78.9374V129.539L75.5977 129.539L75.5977 130.876H78.9374Z" fill="#DAE3F1"/>
<path fill-rule="evenodd" clip-rule="evenodd" d="M78.9374 206.677V210.018H80.2737V206.677H83.6155V205.341L80.2737 205.341V202H78.9374V205.341L75.5977 205.341L75.5977 206.677H78.9374Z" fill="#DAE3F1"/>
<path fill-rule="evenodd" clip-rule="evenodd" d="M104.136 130.876V134.217H105.473V130.876H108.813V129.539L105.473 129.539V126.199H104.136V129.539L100.795 129.539V130.876H104.136Z" fill="#DAE3F1"/>
<path fill-rule="evenodd" clip-rule="evenodd" d="M104.136 206.677V210.018H105.473V206.677H108.813V205.341L105.473 205.341V202H104.136V205.341L100.795 205.341V206.677H104.136Z" fill="#DAE3F1"/>
<path fill-rule="evenodd" clip-rule="evenodd" d="M154.535 130.876V134.217H155.871V130.876H159.211V129.539L155.871 129.539V126.199H154.535V129.539L151.193 129.539L151.193 130.876H154.535Z" fill="#DAE3F1"/>
<path fill-rule="evenodd" clip-rule="evenodd" d="M154.535 206.677V210.018H155.871V206.677H159.211V205.341L155.871 205.341V202H154.535V205.341L151.193 205.341L151.193 206.677H154.535Z" fill="#DAE3F1"/>
<path fill-rule="evenodd" clip-rule="evenodd" d="M129.336 130.876V134.217H130.672V130.876H134.012V129.539L130.672 129.539V126.199H129.336V129.539L125.994 129.539L125.994 130.876H129.336Z" fill="#DAE3F1"/>
<path fill-rule="evenodd" clip-rule="evenodd" d="M129.336 206.677V210.018H130.672V206.677H134.012V205.341L130.672 205.341V202H129.336V205.341L125.994 205.341L125.994 206.677H129.336Z" fill="#DAE3F1"/>
<path fill-rule="evenodd" clip-rule="evenodd" d="M179.73 130.876V134.217H181.067V130.876H184.408V129.539L181.067 129.539V126.199H179.73V129.539L176.391 129.539L176.391 130.876H179.73Z" fill="#DAE3F1"/>
<path fill-rule="evenodd" clip-rule="evenodd" d="M179.73 206.677V210.018H181.067V206.677H184.408V205.341L181.067 205.341V202H179.73V205.341L176.391 205.341L176.391 206.677H179.73Z" fill="#DAE3F1"/>
</svg>
