<svg width="50" height="50" viewBox="0 0 50 50" fill="none" xmlns="http://www.w3.org/2000/svg">
<path d="M10 50C4.75 50 0.5 45.75 0.5 40.5V27.5C0.5 27.25 0.5 27.25 0.75 27C0.75 27 0.75 27 1 27H1.25C6.5 30.5 12.5 32.75 18.75 33.5H19C19.75 33.5 20.5 33 20.75 32C21.25 30 23 28.5 25.25 28.5C27.25 28.5 29.25 30 29.75 32C30 32.75 30.75 33.5 31.5 33.5H31.75C38 32.75 44 30.5 49.25 27H49.5C49.5 27 49.5 27 49.75 27C50 27 50 27.25 50 27.5L49.75 40.5C49.75 45.75 45.5 50 40.25 50H10ZM23.25 34.5V37.75C23.25 38.75 24 39.75 25.25 39.75C26.25 39.75 27 39 27.25 38V34.75C27.25 33.75 26.5 32.75 25.25 32.75C24 32.5 23.25 33.25 23.25 34.5ZM32.25 29.25C30.75 26.75 28 25.25 25.25 25.25C22.25 25.25 19.5 26.75 18 29.25C17.75 29.5 17.5 29.75 17.25 29.75C17.25 29.75 17.25 29.75 17 29.75C12 28.75 7.25 27 3 24L0.5 22.25C0.25 22 0.25 22 0.25 21.75C0.25 20.5 0 16.25 0 16.25C0 11 4.25 6.75 9.5 6.5H14.5C15 2.75 18.25 0 21.75 0H28.25C32 0 35 2.75 35.5 6.5H40.5C45.75 6.5 50 10.75 50 16.25C50 16.25 49.75 18.5 49.75 21.75C49.75 22 49.75 22.25 49.5 22.5C48.25 23.25 47.25 24 47 24.25C42.75 27 38 29 33 30C33 30 33 30 32.75 30C32.75 29.5 32.5 29.5 32.25 29.25ZM18.5 6.5H32C31.5 5 30.25 3.75 28.5 3.75H21.75C20.25 3.75 18.75 5 18.5 6.5Z" fill="#FF614D"/>
</svg>
