<svg width="61" height="44" viewBox="0 0 61 44" fill="none" xmlns="http://www.w3.org/2000/svg">
<path d="M12.4438 36.575C12.4438 30.525 20.4188 29.15 30.0438 29.15C39.3937 29.15 47.6438 30.525 47.6438 36.575C47.6438 42.625 39.3937 44 30.0438 44C20.6938 44 12.4438 42.625 12.4438 36.575ZM52.3187 37.675C52.5938 32.45 49.8438 27.775 44.8938 25.575C47.9188 25.575 50.9437 25.85 53.6937 26.4C56.1688 26.675 58.3688 28.05 59.4688 29.975C60.2938 31.35 60.2938 33 59.4688 34.65C58.0938 37.4 54.2438 38.225 52.5938 38.5C52.5938 38.225 52.3187 37.95 52.3187 37.675ZM7.49375 38.225C5.84375 37.95 1.71875 37.125 0.61875 34.375C-0.20625 33 -0.20625 31.35 0.61875 29.7C1.99375 27.5 4.19375 26.4 6.39375 26.125C9.41875 25.575 12.4438 25.3 15.1938 25.3C10.5188 27.5 7.49375 32.175 7.76875 37.4C8.04375 37.95 7.76875 38.225 7.49375 38.225ZM18.4937 11.55C18.4937 5.225 23.7188 0 30.0438 0C36.3688 0 41.5938 5.225 41.5938 11.55C41.5938 17.875 36.3688 23.1 30.0438 23.1C23.7188 23.1 18.4937 18.15 18.4937 11.55ZM45.4437 21.45C44.8937 21.45 44.6187 21.45 44.0687 21.45C43.7938 21.45 43.7938 21.175 43.7938 20.9C43.7938 20.9 43.7938 20.9 43.7938 20.625C47.3688 15.125 47.3688 7.975 43.5188 2.475V2.2H43.7938C44.3438 2.2 45.1688 1.925 45.7188 1.925C51.2188 1.925 55.6188 6.325 55.3438 11.825C55.3438 12.65 55.3438 13.475 55.0687 14.3C53.9688 18.7 50.1187 21.725 45.4437 21.45ZM5.29375 14.3C3.64375 9.075 6.94375 3.575 12.1688 2.2C12.9938 2.2 13.8187 1.925 14.6437 1.925C15.1937 1.925 16.0188 1.925 16.5688 2.2H16.8438V2.475C12.9937 7.975 12.7188 15.125 16.5688 20.9C16.5688 21.175 16.5688 21.45 16.5688 21.45C16.5688 21.45 16.5687 21.45 16.2937 21.45C15.7437 21.45 15.4687 21.45 14.9187 21.45H14.6437C10.2437 21.725 6.39375 18.7 5.29375 14.3Z" fill="#AF90E7"/>
</svg>
