<svg width="56" height="50" viewBox="0 0 56 50" fill="none" xmlns="http://www.w3.org/2000/svg">
<path d="M48.4028 50H7.56944C6.73611 50 5.90278 49.7222 5.06944 49.4444C3.125 48.6111 1.45833 47.2222 0.625 45.2778C-0.208333 43.3333 -0.208333 41.3889 0.625 39.4444L21.1806 3.88889C21.7361 2.77778 22.8472 1.66667 24.2361 1.11111C25.3472 0.277778 26.7361 0 27.8472 0C30.625 0 33.4028 1.38889 34.7917 3.88889L55.0694 39.1667C55.3472 40 55.625 41.1111 55.625 41.9444C55.625 43.8889 55.0694 46.1111 53.6806 47.5C52.2917 48.8889 50.3472 50 48.4028 50ZM27.8472 34.1667C26.4583 34.1667 25.3472 35.2778 25.3472 36.3889C25.3472 37.5 26.4583 38.8889 27.8472 38.8889C27.8472 38.8889 27.8472 38.8889 28.125 38.8889C29.5139 38.8889 30.625 37.7778 30.625 36.3889C30.3472 35.2778 29.2361 34.1667 27.8472 34.1667ZM27.8472 16.9444C26.7361 16.9444 25.625 18.0556 25.625 19.4444V27.2222C25.625 28.6111 26.7361 29.7222 28.125 29.7222C29.5139 29.7222 30.625 28.6111 30.625 27.2222V19.4444C30.3472 18.0556 29.2361 16.9444 27.8472 16.9444Z" fill="#4DA2D6"/>
</svg>
