<svg width="50" height="50" viewBox="0 0 50 50" fill="none" xmlns="http://www.w3.org/2000/svg">
<path d="M13.4557 49.7202C9.72665 49.9688 6.24624 48.7258 3.51163 46.2398C1.02562 43.5052 -0.21738 40.0247 0.0312205 36.2957V17.8993C-0.21738 14.1702 1.02562 10.6898 3.51163 7.95523C6.24624 5.46922 9.72665 4.22621 13.4557 4.47482H33.3437C33.3437 4.97202 33.0951 5.71782 33.0951 6.46362C33.0951 11.9328 37.57 16.6563 43.2878 16.6563C43.785 16.6563 44.5308 16.6563 45.028 16.4077V36.5443C45.2766 40.2733 44.0336 43.7538 41.5476 46.4884C38.813 48.9744 35.3325 50.2174 31.6035 49.9688H13.4557V49.7202ZM17.6819 22.3741C17.1847 22.3741 16.9361 22.6227 16.4389 23.1199L8.98085 32.5667L8.73225 32.8153C8.23505 33.5611 8.48365 34.5555 9.22945 35.0527C9.47805 35.3013 9.97526 35.3013 10.4725 35.3013C10.9697 35.3013 11.4669 35.0527 11.9641 34.5555L18.1791 26.6003L25.1399 31.8209L25.6371 32.3181C26.3829 32.8153 27.3773 32.5667 27.8745 31.8209L35.3325 22.3741C35.8298 21.8769 35.8298 21.1311 35.5812 20.6339C35.3326 20.1367 34.8353 19.6395 34.0895 19.6395H33.8409C33.3437 19.6395 32.5979 19.8881 32.3493 20.3853L26.3829 28.0919L19.1735 22.6227C18.9249 22.3741 18.4277 22.3741 17.6819 22.3741C17.9305 22.3741 17.9305 22.3741 17.6819 22.3741ZM37.57 5.96642C37.57 2.73461 40.3046 0 43.5364 0C46.7682 0 49.5028 2.73461 49.5028 5.96642C49.5028 9.19823 46.7682 11.9328 43.5364 11.9328C40.3046 11.9328 37.57 9.19823 37.57 5.96642Z" fill="url(#paint0_linear_903_809)"/>
<defs>
<linearGradient id="paint0_linear_903_809" x1="0" y1="0" x2="53.8772" y2="5.26883" gradientUnits="userSpaceOnUse">
<stop stop-color="#6CD990"/>
<stop offset="1" stop-color="#5CCC81"/>
</linearGradient>
</defs>
</svg>
